0
SECTION
2
HEADER
9
$INSUNITS
70
4
9
$ACADVER
1
AC1014
9
$HANDSEED
5
FFFF
0
ENDSEC
0
SECTION
2
TABLES
0
TABLE
2
VPORT
5
8
100
AcDbSymbolTable
0
ENDTAB
0
TABLE
2
LTYPE
5
5
100
AcDbSymbolTable
0
LTYPE
5
14
100
AcDbSymbolTableRecord
100
AcDbLinetypeTableRecord
2
BYBLOCK
70
0
0
LTYPE
5
15
100
AcDbSymbolTableRecord
100
AcDbLinetypeTableRecord
2
BYLAYER
70
0
0
ENDTAB
0
TABLE
2
LAYER
5
2
100
AcDbSymbolTable
70
2
0
LAYER
5
50
100
AcDbSymbolTableRecord
100
AcDbLayerTableRecord
2
0
70
0
6
CONTINUOUS
0
ENDTAB
0
TABLE
2
STYLE
5
3
100
AcDbSymbolTable
70
1
0
STYLE
5
11
100
AcDbSymbolTableRecord
100
AcDbTextStyleTableRecord
2
STANDARD
70
0
0
ENDTAB
0
TABLE
2
VIEW
5
6
100
AcDbSymbolTable
70
0
0
ENDTAB
0
TABLE
2
UCS
5
7
100
AcDbSymbolTable
70
0
0
ENDTAB
0
TABLE
2
APPID
5
9
100
AcDbSymbolTable
70
2
0
APPID
5
12
100
AcDbSymbolTableRecord
100
AcDbRegAppTableRecord
2
ACAD
70
0
0
ENDTAB
0
TABLE
2
DIMSTYLE
5
A
100
AcDbSymbolTable
70
1
0
ENDTAB
0
TABLE
2
BLOCK_RECORD
5
1
100
AcDbSymbolTable
70
1
0
BLOCK_RECORD
5
1F
100
AcDbSymbolTableRecord
100
AcDbBlockTableRecord
2
*MODEL_SPACE
0
BLOCK_RECORD
5
1B
100
AcDbSymbolTableRecord
100
AcDbBlockTableRecord
2
*PAPER_SPACE
0
ENDTAB
0
ENDSEC
0
SECTION
2
BLOCKS
0
BLOCK
5
20
100
AcDbEntity
100
AcDbBlockBegin
2
*MODEL_SPACE
0
ENDBLK
5
21
100
AcDbEntity
100
AcDbBlockEnd
0
BLOCK
5
1C
100
AcDbEntity
100
AcDbBlockBegin
2
*PAPER_SPACE
0
ENDBLK
5
1D
100
AcDbEntity
100
AcDbBlockEnd
0
ENDSEC
0
SECTION
2
ENTITIES
0
LINE
5
100
100
AcDbEntity
8
0
100
AcDbLine
10
0
20
33.388888885837446
30
0
11
17.5
21
33.388888885837446
31
0
0
LINE
5
101
100
AcDbEntity
8
0
100
AcDbLine
10
17.5
20
33.388888885837446
30
0
11
17.5
21
36.388889454244122
31
0
0
LINE
5
102
100
AcDbEntity
8
0
100
AcDbLine
10
17.5
20
36.388889454244122
30
0
11
0
21
36.388889454244122
31
0
0
LINE
5
103
100
AcDbEntity
8
0
100
AcDbLine
10
17.5
20
66.777777774726331
30
0
11
17.5
21
69.777778343133008
31
0
0
LINE
5
104
100
AcDbEntity
8
0
100
AcDbLine
10
0
20
66.777777774726331
30
0
11
17.5
21
66.777777774726331
31
0
0
LINE
5
105
100
AcDbEntity
8
0
100
AcDbLine
10
17.5
20
69.777778343133008
30
0
11
0
21
69.777778343133008
31
0
0
LINE
5
106
100
AcDbEntity
8
0
100
AcDbLine
10
17.5
20
100.16666666361523
30
0
11
17.5
21
103.16666723202189
31
0
0
LINE
5
107
100
AcDbEntity
8
0
100
AcDbLine
10
17.5
20
103.16666723202189
30
0
11
0
21
103.16666723202189
31
0
0
LINE
5
108
100
AcDbEntity
8
0
100
AcDbLine
10
0
20
100.16666666361523
30
0
11
17.5
21
100.16666666361523
31
0
0
LINE
5
109
100
AcDbEntity
8
0
100
AcDbLine
10
0
20
133.55555555250413
30
0
11
17.5
21
133.55555555250413
31
0
0
LINE
5
110
100
AcDbEntity
8
0
100
AcDbLine
10
17.5
20
136.55555612091078
30
0
11
0
21
136.55555612091078
31
0
0
LINE
5
111
100
AcDbEntity
8
0
100
AcDbLine
10
17.5
20
133.55555555250413
30
0
11
17.5
21
136.55555612091078
31
0
0
LINE
5
112
100
AcDbEntity
8
0
100
AcDbLine
10
0
20
166.94444444139299
30
0
11
17.5
21
166.94444444139299
31
0
0
LINE
5
113
100
AcDbEntity
8
0
100
AcDbLine
10
17.5
20
166.94444444139299
30
0
11
17.5
21
169.94444500979967
31
0
0
LINE
5
114
100
AcDbEntity
8
0
100
AcDbLine
10
17.5
20
169.94444500979967
30
0
11
0
21
169.94444500979967
31
0
0
LINE
5
115
100
AcDbEntity
8
0
100
AcDbLine
10
0
20
200.3333333302819
30
0
11
17.5
21
200.3333333302819
31
0
0
LINE
5
116
100
AcDbEntity
8
0
100
AcDbLine
10
17.5
20
200.3333333302819
30
0
11
17.5
21
203.33333389868855
31
0
0
LINE
5
117
100
AcDbEntity
8
0
100
AcDbLine
10
17.5
20
203.33333389868855
30
0
11
0
21
203.33333389868855
31
0
0
LINE
5
118
100
AcDbEntity
8
0
100
AcDbLine
10
17.5
20
236.72222278757744
30
0
11
0
21
236.72222278757744
31
0
0
LINE
5
119
100
AcDbEntity
8
0
100
AcDbLine
10
17.5
20
233.72222221917076
30
0
11
17.5
21
236.72222278757744
31
0
0
LINE
5
120
100
AcDbEntity
8
0
100
AcDbLine
10
0
20
233.72222221917076
30
0
11
17.5
21
233.72222221917076
31
0
0
LINE
5
121
100
AcDbEntity
8
0
100
AcDbLine
10
17.5
20
270.11111167646629
30
0
11
0
21
270.11111167646629
31
0
0
LINE
5
122
100
AcDbEntity
8
0
100
AcDbLine
10
0
20
267.11111110805967
30
0
11
17.5
21
267.11111110805967
31
0
0
LINE
5
123
100
AcDbEntity
8
0
100
AcDbLine
10
17.5
20
267.11111110805967
30
0
11
17.5
21
270.11111167646629
31
0
0
LINE
5
124
100
AcDbEntity
8
0
100
AcDbLine
10
17.5
20
303.50000056535521
30
0
11
0
21
303.50000056535521
31
0
0
LINE
5
125
100
AcDbEntity
8
0
100
AcDbLine
10
0
20
300.49999999694853
30
0
11
17.5
21
300.49999999694853
31
0
0
LINE
5
126
100
AcDbEntity
8
0
100
AcDbLine
10
17.5
20
300.49999999694853
30
0
11
17.5
21
303.50000056535521
31
0
0
LINE
5
127
100
AcDbEntity
8
0
100
AcDbLine
10
0
20
0
30
0
11
0
21
303.5
31
0
0
LINE
5
128
100
AcDbEntity
8
0
100
AcDbLine
10
0
20
0
30
0
11
35
21
0
31
0
0
LINE
5
129
100
AcDbEntity
8
0
100
AcDbLine
10
35
20
0
30
0
11
35
21
338.5
31
0
0
LINE
5
130
100
AcDbEntity
8
0
100
AcDbLine
10
0
20
303.5
30
0
11
35
21
338.5
31
0
0
ENDSEC
0
SECTION
2
OBJECTS
0
DICTIONARY
5
C
100
AcDbDictionary
3
ACAD_GROUP
350
D
3
ACAD_MLINESTYLE
350
17
0
DICTIONARY
5
D
100
AcDbDictionary
0
DICTIONARY
5
1A
330
C
100
AcDbDictionary
0
DICTIONARY
5
17
100
AcDbDictionary
0
ENDSEC
0
EOF
