0
SECTION
2
HEADER
9
$INSUNITS
70
4
9
$ACADVER
1
AC1014
9
$HANDSEED
5
FFFF
0
ENDSEC
0
SECTION
2
TABLES
0
TABLE
2
VPORT
5
8
100
AcDbSymbolTable
0
ENDTAB
0
TABLE
2
LTYPE
5
5
100
AcDbSymbolTable
0
LTYPE
5
14
100
AcDbSymbolTableRecord
100
AcDbLinetypeTableRecord
2
BYBLOCK
70
0
0
LTYPE
5
15
100
AcDbSymbolTableRecord
100
AcDbLinetypeTableRecord
2
BYLAYER
70
0
0
ENDTAB
0
TABLE
2
LAYER
5
2
100
AcDbSymbolTable
70
2
0
LAYER
5
50
100
AcDbSymbolTableRecord
100
AcDbLayerTableRecord
2
0
70
0
6
CONTINUOUS
0
ENDTAB
0
TABLE
2
STYLE
5
3
100
AcDbSymbolTable
70
1
0
STYLE
5
11
100
AcDbSymbolTableRecord
100
AcDbTextStyleTableRecord
2
STANDARD
70
0
0
ENDTAB
0
TABLE
2
VIEW
5
6
100
AcDbSymbolTable
70
0
0
ENDTAB
0
TABLE
2
UCS
5
7
100
AcDbSymbolTable
70
0
0
ENDTAB
0
TABLE
2
APPID
5
9
100
AcDbSymbolTable
70
2
0
APPID
5
12
100
AcDbSymbolTableRecord
100
AcDbRegAppTableRecord
2
ACAD
70
0
0
ENDTAB
0
TABLE
2
DIMSTYLE
5
A
100
AcDbSymbolTable
70
1
0
ENDTAB
0
TABLE
2
BLOCK_RECORD
5
1
100
AcDbSymbolTable
70
1
0
BLOCK_RECORD
5
1F
100
AcDbSymbolTableRecord
100
AcDbBlockTableRecord
2
*MODEL_SPACE
0
BLOCK_RECORD
5
1B
100
AcDbSymbolTableRecord
100
AcDbBlockTableRecord
2
*PAPER_SPACE
0
ENDTAB
0
ENDSEC
0
SECTION
2
BLOCKS
0
BLOCK
5
20
100
AcDbEntity
100
AcDbBlockBegin
2
*MODEL_SPACE
0
ENDBLK
5
21
100
AcDbEntity
100
AcDbBlockEnd
0
BLOCK
5
1C
100
AcDbEntity
100
AcDbBlockBegin
2
*PAPER_SPACE
0
ENDBLK
5
1D
100
AcDbEntity
100
AcDbBlockEnd
0
ENDSEC
0
SECTION
2
ENTITIES
0
LINE
5
100
100
AcDbEntity
8
0
100
AcDbLine
10
0
20
33.388888885837453
30
0
11
17.5
21
33.388888885837453
31
0
0
LINE
5
101
100
AcDbEntity
8
0
100
AcDbLine
10
17.5
20
33.388888885837453
30
0
11
17.5
21
36.388889454244115
31
0
0
LINE
5
102
100
AcDbEntity
8
0
100
AcDbLine
10
17.5
20
36.388889454244115
30
0
11
0
21
36.388889454244115
31
0
0
LINE
5
103
100
AcDbEntity
8
0
100
AcDbLine
10
17.5
20
66.777777774726317
30
0
11
17.5
21
69.777778343133008
31
0
0
LINE
5
104
100
AcDbEntity
8
0
100
AcDbLine
10
0
20
66.777777774726317
30
0
11
17.5
21
66.777777774726317
31
0
0
LINE
5
105
100
AcDbEntity
8
0
100
AcDbLine
10
17.5
20
69.777778343133008
30
0
11
0
21
69.777778343133008
31
0
0
LINE
5
106
100
AcDbEntity
8
0
100
AcDbLine
10
17.5
20
100.16666666361523
30
0
11
17.5
21
103.16666723202188
31
0
0
LINE
5
107
100
AcDbEntity
8
0
100
AcDbLine
10
17.5
20
103.16666723202188
30
0
11
0
21
103.16666723202188
31
0
0
LINE
5
108
100
AcDbEntity
8
0
100
AcDbLine
10
0
20
100.16666666361523
30
0
11
17.5
21
100.16666666361523
31
0
0
LINE
5
109
100
AcDbEntity
8
0
100
AcDbLine
10
0
20
133.55555555250413
30
0
11
17.5
21
133.55555555250413
31
0
0
LINE
5
110
100
AcDbEntity
8
0
100
AcDbLine
10
17.5
20
136.55555612091078
30
0
11
0
21
136.55555612091078
31
0
0
LINE
5
111
100
AcDbEntity
8
0
100
AcDbLine
10
17.5
20
133.55555555250413
30
0
11
17.5
21
136.55555612091078
31
0
0
LINE
5
112
100
AcDbEntity
8
0
100
AcDbLine
10
0
20
166.94444444139299
30
0
11
17.5
21
166.94444444139299
31
0
0
LINE
5
113
100
AcDbEntity
8
0
100
AcDbLine
10
17.5
20
166.94444444139299
30
0
11
17.5
21
169.94444500979969
31
0
0
LINE
5
114
100
AcDbEntity
8
0
100
AcDbLine
10
17.5
20
169.94444500979969
30
0
11
0
21
169.94444500979969
31
0
0
LINE
5
115
100
AcDbEntity
8
0
100
AcDbLine
10
0
20
200.33333333028193
30
0
11
17.5
21
200.33333333028193
31
0
0
LINE
5
116
100
AcDbEntity
8
0
100
AcDbLine
10
17.5
20
200.33333333028193
30
0
11
17.5
21
203.33333389868855
31
0
0
LINE
5
117
100
AcDbEntity
8
0
100
AcDbLine
10
17.5
20
203.33333389868855
30
0
11
0
21
203.33333389868855
31
0
0
LINE
5
118
100
AcDbEntity
8
0
100
AcDbLine
10
17.5
20
236.72222278757744
30
0
11
0
21
236.72222278757744
31
0
0
LINE
5
119
100
AcDbEntity
8
0
100
AcDbLine
10
17.5
20
233.72222221917082
30
0
11
17.5
21
236.72222278757744
31
0
0
LINE
5
120
100
AcDbEntity
8
0
100
AcDbLine
10
0
20
233.72222221917082
30
0
11
17.5
21
233.72222221917082
31
0
0
LINE
5
121
100
AcDbEntity
8
0
100
AcDbLine
10
17.5
20
270.11111167646629
30
0
11
0
21
270.11111167646629
31
0
0
LINE
5
122
100
AcDbEntity
8
0
100
AcDbLine
10
0
20
267.11111110805967
30
0
11
17.5
21
267.11111110805967
31
0
0
LINE
5
123
100
AcDbEntity
8
0
100
AcDbLine
10
17.5
20
267.11111110805967
30
0
11
17.5
21
270.11111167646629
31
0
0
LINE
5
124
100
AcDbEntity
8
0
100
AcDbLine
10
17.5
20
303.50000056535521
30
0
11
0
21
303.50000056535521
31
0
0
LINE
5
125
100
AcDbEntity
8
0
100
AcDbLine
10
0
20
300.49999999694853
30
0
11
17.5
21
300.49999999694853
31
0
0
LINE
5
126
100
AcDbEntity
8
0
100
AcDbLine
10
17.5
20
300.49999999694853
30
0
11
17.5
21
303.50000056535521
31
0
0
LWPOLYLINE
5
127
100
AcDbEntity
8
0
100
AcDbPolyline
90
4
70
1
43
0.0
10
0
20
0
10
0
20
303.50000056535521
10
35
20
338.5
10
35
20
0
0
LINE
5
128
100
AcDbEntity
8
0
100
AcDbLine
10
35
20
33.388888885837453
30
0
11
52.5
21
33.388888885837453
31
0
0
LINE
5
129
100
AcDbEntity
8
0
100
AcDbLine
10
52.5
20
100.16666666361523
30
0
11
52.5
21
103.16666723202188
31
0
0
LINE
5
130
100
AcDbEntity
8
0
100
AcDbLine
10
52.5
20
233.72222221917082
30
0
11
52.5
21
236.72222278757744
31
0
0
LINE
5
131
100
AcDbEntity
8
0
100
AcDbLine
10
35
20
66.777777774726317
30
0
11
52.5
21
66.777777774726317
31
0
0
LINE
5
132
100
AcDbEntity
8
0
100
AcDbLine
10
52.5
20
33.388888885837453
30
0
11
52.5
21
36.388889454244115
31
0
0
LINE
5
133
100
AcDbEntity
8
0
100
AcDbLine
10
52.5
20
103.16666723202188
30
0
11
35
21
103.16666723202188
31
0
0
LINE
5
134
100
AcDbEntity
8
0
100
AcDbLine
10
52.5
20
36.388889454244115
30
0
11
35
21
36.388889454244115
31
0
0
LINE
5
135
100
AcDbEntity
8
0
100
AcDbLine
10
52.5
20
69.777778343133008
30
0
11
35
21
69.777778343133008
31
0
0
LINE
5
136
100
AcDbEntity
8
0
100
AcDbLine
10
52.5
20
267.11111110805967
30
0
11
52.5
21
270.11111167646629
31
0
0
LINE
5
137
100
AcDbEntity
8
0
100
AcDbLine
10
52.5
20
166.94444444139299
30
0
11
52.5
21
169.94444500979969
31
0
0
LINE
5
138
100
AcDbEntity
8
0
100
AcDbLine
10
52.5
20
136.55555612091078
30
0
11
35
21
136.55555612091078
31
0
0
LINE
5
139
100
AcDbEntity
8
0
100
AcDbLine
10
35
20
100.16666666361523
30
0
11
52.5
21
100.16666666361523
31
0
0
LINE
5
140
100
AcDbEntity
8
0
100
AcDbLine
10
35
20
200.33333333028193
30
0
11
52.5
21
200.33333333028193
31
0
0
LINE
5
141
100
AcDbEntity
8
0
100
AcDbLine
10
52.5
20
169.94444500979969
30
0
11
35
21
169.94444500979969
31
0
0
LINE
5
142
100
AcDbEntity
8
0
100
AcDbLine
10
35
20
300.49999999694853
30
0
11
52.5
21
300.49999999694853
31
0
0
LINE
5
143
100
AcDbEntity
8
0
100
AcDbLine
10
52.5
20
303.50000056535521
30
0
11
35
21
303.50000056535521
31
0
0
LINE
5
144
100
AcDbEntity
8
0
100
AcDbLine
10
35
20
0
30
0
11
35
21
303.50000056535521
31
0
0
LINE
5
145
100
AcDbEntity
8
0
100
AcDbLine
10
35
20
133.55555555250413
30
0
11
52.5
21
133.55555555250413
31
0
0
LINE
5
146
100
AcDbEntity
8
0
100
AcDbLine
10
52.5
20
236.72222278757744
30
0
11
35
21
236.72222278757744
31
0
0
LINE
5
147
100
AcDbEntity
8
0
100
AcDbLine
10
52.5
20
66.777777774726317
30
0
11
52.5
21
69.777778343133008
31
0
0
LINE
5
148
100
AcDbEntity
8
0
100
AcDbLine
10
52.5
20
200.33333333028193
30
0
11
52.5
21
203.33333389868855
31
0
0
LINE
5
149
100
AcDbEntity
8
0
100
AcDbLine
10
35
20
233.72222221917082
30
0
11
52.5
21
233.72222221917082
31
0
0
LINE
5
150
100
AcDbEntity
8
0
100
AcDbLine
10
52.5
20
270.11111167646629
30
0
11
35
21
270.11111167646629
31
0
0
LINE
5
151
100
AcDbEntity
8
0
100
AcDbLine
10
52.5
20
133.55555555250413
30
0
11
52.5
21
136.55555612091078
31
0
0
LINE
5
152
100
AcDbEntity
8
0
100
AcDbLine
10
35
20
267.11111110805967
30
0
11
52.5
21
267.11111110805967
31
0
0
LINE
5
153
100
AcDbEntity
8
0
100
AcDbLine
10
52.5
20
300.49999999694853
30
0
11
52.5
21
303.50000056535521
31
0
0
LINE
5
154
100
AcDbEntity
8
0
100
AcDbLine
10
35
20
166.94444444139299
30
0
11
52.5
21
166.94444444139299
31
0
0
LINE
5
155
100
AcDbEntity
8
0
100
AcDbLine
10
52.5
20
203.33333389868855
30
0
11
35
21
203.33333389868855
31
0
0
LINE
5
156
100
AcDbEntity
8
0
100
AcDbLine
10
35
20
303.50000056535521
30
0
11
70
21
338.5
31
0
0
LINE
5
157
100
AcDbEntity
8
0
100
AcDbLine
10
35
20
0
30
0
11
70
21
0
31
0
0
LWPOLYLINE
5
158
100
AcDbEntity
8
0
100
AcDbPolyline
90
4
70
1
43
0.0
10
70
20
0
10
70
20
303.50000056535521
10
105
20
338.5
10
105
20
0
0
LINE
5
159
100
AcDbEntity
8
0
100
AcDbLine
10
122.5
20
36.388889454244115
30
0
11
105
21
36.388889454244115
31
0
0
LINE
5
160
100
AcDbEntity
8
0
100
AcDbLine
10
122.5
20
270.11111167646629
30
0
11
105
21
270.11111167646629
31
0
0
LINE
5
161
100
AcDbEntity
8
0
100
AcDbLine
10
70
20
200.33333333028193
30
0
11
87.5
21
200.33333333028193
31
0
0
LINE
5
162
100
AcDbEntity
8
0
100
AcDbLine
10
87.5
20
33.388888885837453
30
0
11
87.5
21
36.388889454244115
31
0
0
LINE
5
163
100
AcDbEntity
8
0
100
AcDbLine
10
87.5
20
166.94444444139299
30
0
11
87.5
21
169.94444500979969
31
0
0
LINE
5
164
100
AcDbEntity
8
0
100
AcDbLine
10
87.5
20
169.94444500979969
30
0
11
70
21
169.94444500979969
31
0
0
LINE
5
165
100
AcDbEntity
8
0
100
AcDbLine
10
87.5
20
200.33333333028193
30
0
11
87.5
21
203.33333389868855
31
0
0
LINE
5
166
100
AcDbEntity
8
0
100
AcDbLine
10
70
20
33.388888885837453
30
0
11
87.5
21
33.388888885837453
31
0
0
LINE
5
167
100
AcDbEntity
8
0
100
AcDbLine
10
87.5
20
267.11111110805967
30
0
11
87.5
21
270.11111167646629
31
0
0
LINE
5
168
100
AcDbEntity
8
0
100
AcDbLine
10
87.5
20
300.49999999694853
30
0
11
87.5
21
303.50000056535521
31
0
0
LINE
5
169
100
AcDbEntity
8
0
100
AcDbLine
10
122.5
20
303.50000056535521
30
0
11
105
21
303.50000056535521
31
0
0
LINE
5
170
100
AcDbEntity
8
0
100
AcDbLine
10
122.5
20
66.777777774726317
30
0
11
122.5
21
69.777778343133008
31
0
0
LINE
5
171
100
AcDbEntity
8
0
100
AcDbLine
10
105
20
66.777777774726317
30
0
11
122.5
21
66.777777774726317
31
0
0
LINE
5
172
100
AcDbEntity
8
0
100
AcDbLine
10
87.5
20
236.72222278757744
30
0
11
70
21
236.72222278757744
31
0
0
LINE
5
173
100
AcDbEntity
8
0
100
AcDbLine
10
122.5
20
133.55555555250413
30
0
11
122.5
21
136.55555612091078
31
0
0
LINE
5
174
100
AcDbEntity
8
0
100
AcDbLine
10
70
20
133.55555555250413
30
0
11
87.5
21
133.55555555250413
31
0
0
LINE
5
175
100
AcDbEntity
8
0
100
AcDbLine
10
122.5
20
100.16666666361523
30
0
11
122.5
21
103.16666723202188
31
0
0
LINE
5
176
100
AcDbEntity
8
0
100
AcDbLine
10
122.5
20
203.33333389868855
30
0
11
105
21
203.33333389868855
31
0
0
LINE
5
177
100
AcDbEntity
8
0
100
AcDbLine
10
122.5
20
69.777778343133008
30
0
11
105
21
69.777778343133008
31
0
0
LINE
5
178
100
AcDbEntity
8
0
100
AcDbLine
10
105
20
303.50000056535521
30
0
11
140
21
338.5
31
0
0
LINE
5
179
100
AcDbEntity
8
0
100
AcDbLine
10
105
20
300.49999999694853
30
0
11
122.5
21
300.49999999694853
31
0
0
LINE
5
180
100
AcDbEntity
8
0
100
AcDbLine
10
70
20
100.16666666361523
30
0
11
87.5
21
100.16666666361523
31
0
0
LINE
5
181
100
AcDbEntity
8
0
100
AcDbLine
10
87.5
20
270.11111167646629
30
0
11
70
21
270.11111167646629
31
0
0
LINE
5
182
100
AcDbEntity
8
0
100
AcDbLine
10
87.5
20
233.72222221917082
30
0
11
87.5
21
236.72222278757744
31
0
0
LINE
5
183
100
AcDbEntity
8
0
100
AcDbLine
10
105
20
133.55555555250413
30
0
11
122.5
21
133.55555555250413
31
0
0
LINE
5
184
100
AcDbEntity
8
0
100
AcDbLine
10
105
20
0
30
0
11
105
21
303.50000056535521
31
0
0
LINE
5
185
100
AcDbEntity
8
0
100
AcDbLine
10
122.5
20
300.49999999694853
30
0
11
122.5
21
303.50000056535521
31
0
0
LINE
5
186
100
AcDbEntity
8
0
100
AcDbLine
10
87.5
20
103.16666723202188
30
0
11
70
21
103.16666723202188
31
0
0
LINE
5
187
100
AcDbEntity
8
0
100
AcDbLine
10
87.5
20
100.16666666361523
30
0
11
87.5
21
103.16666723202188
31
0
0
LINE
5
188
100
AcDbEntity
8
0
100
AcDbLine
10
70
20
166.94444444139299
30
0
11
87.5
21
166.94444444139299
31
0
0
LINE
5
189
100
AcDbEntity
8
0
100
AcDbLine
10
122.5
20
236.72222278757744
30
0
11
105
21
236.72222278757744
31
0
0
LINE
5
190
100
AcDbEntity
8
0
100
AcDbLine
10
122.5
20
103.16666723202188
30
0
11
105
21
103.16666723202188
31
0
0
LINE
5
191
100
AcDbEntity
8
0
100
AcDbLine
10
122.5
20
169.94444500979969
30
0
11
105
21
169.94444500979969
31
0
0
LINE
5
192
100
AcDbEntity
8
0
100
AcDbLine
10
105
20
33.388888885837453
30
0
11
122.5
21
33.388888885837453
31
0
0
LINE
5
193
100
AcDbEntity
8
0
100
AcDbLine
10
87.5
20
133.55555555250413
30
0
11
87.5
21
136.55555612091078
31
0
0
LINE
5
194
100
AcDbEntity
8
0
100
AcDbLine
10
105
20
267.11111110805967
30
0
11
122.5
21
267.11111110805967
31
0
0
LINE
5
195
100
AcDbEntity
8
0
100
AcDbLine
10
87.5
20
203.33333389868855
30
0
11
70
21
203.33333389868855
31
0
0
LINE
5
196
100
AcDbEntity
8
0
100
AcDbLine
10
122.5
20
136.55555612091078
30
0
11
105
21
136.55555612091078
31
0
0
LINE
5
197
100
AcDbEntity
8
0
100
AcDbLine
10
105
20
233.72222221917082
30
0
11
122.5
21
233.72222221917082
31
0
0
LINE
5
198
100
AcDbEntity
8
0
100
AcDbLine
10
70
20
267.11111110805967
30
0
11
87.5
21
267.11111110805967
31
0
0
LINE
5
199
100
AcDbEntity
8
0
100
AcDbLine
10
70
20
66.777777774726317
30
0
11
87.5
21
66.777777774726317
31
0
0
LINE
5
200
100
AcDbEntity
8
0
100
AcDbLine
10
105
20
100.16666666361523
30
0
11
122.5
21
100.16666666361523
31
0
0
LINE
5
201
100
AcDbEntity
8
0
100
AcDbLine
10
70
20
233.72222221917082
30
0
11
87.5
21
233.72222221917082
31
0
0
LINE
5
202
100
AcDbEntity
8
0
100
AcDbLine
10
122.5
20
233.72222221917082
30
0
11
122.5
21
236.72222278757744
31
0
0
LINE
5
203
100
AcDbEntity
8
0
100
AcDbLine
10
105
20
200.33333333028193
30
0
11
122.5
21
200.33333333028193
31
0
0
LINE
5
204
100
AcDbEntity
8
0
100
AcDbLine
10
122.5
20
267.11111110805967
30
0
11
122.5
21
270.11111167646629
31
0
0
LINE
5
205
100
AcDbEntity
8
0
100
AcDbLine
10
87.5
20
66.777777774726317
30
0
11
87.5
21
69.777778343133008
31
0
0
LINE
5
206
100
AcDbEntity
8
0
100
AcDbLine
10
70
20
300.49999999694853
30
0
11
87.5
21
300.49999999694853
31
0
0
LINE
5
207
100
AcDbEntity
8
0
100
AcDbLine
10
105
20
0
30
0
11
140
21
0
31
0
0
LINE
5
208
100
AcDbEntity
8
0
100
AcDbLine
10
122.5
20
33.388888885837453
30
0
11
122.5
21
36.388889454244115
31
0
0
LINE
5
209
100
AcDbEntity
8
0
100
AcDbLine
10
87.5
20
69.777778343133008
30
0
11
70
21
69.777778343133008
31
0
0
LINE
5
210
100
AcDbEntity
8
0
100
AcDbLine
10
122.5
20
200.33333333028193
30
0
11
122.5
21
203.33333389868855
31
0
0
LINE
5
211
100
AcDbEntity
8
0
100
AcDbLine
10
87.5
20
136.55555612091078
30
0
11
70
21
136.55555612091078
31
0
0
LINE
5
212
100
AcDbEntity
8
0
100
AcDbLine
10
87.5
20
303.50000056535521
30
0
11
70
21
303.50000056535521
31
0
0
LINE
5
213
100
AcDbEntity
8
0
100
AcDbLine
10
87.5
20
36.388889454244115
30
0
11
70
21
36.388889454244115
31
0
0
LINE
5
214
100
AcDbEntity
8
0
100
AcDbLine
10
105
20
166.94444444139299
30
0
11
122.5
21
166.94444444139299
31
0
0
LINE
5
215
100
AcDbEntity
8
0
100
AcDbLine
10
122.5
20
166.94444444139299
30
0
11
122.5
21
169.94444500979969
31
0
0
LINE
5
216
100
AcDbEntity
8
0
100
AcDbLine
10
70
20
303.50000056535521
30
0
11
70
21
338.5
31
0
0
LWPOLYLINE
5
217
100
AcDbEntity
8
0
100
AcDbPolyline
90
4
70
1
43
0.0
10
140
20
0
10
140
20
303.50000056535521
10
175
20
338.5
10
175
20
0
0
LINE
5
218
100
AcDbEntity
8
0
100
AcDbLine
10
140
20
267.11111110805967
30
0
11
157.5
21
267.11111110805967
31
0
0
LINE
5
219
100
AcDbEntity
8
0
100
AcDbLine
10
192.5
20
236.72222278757744
30
0
11
175
21
236.72222278757744
31
0
0
LINE
5
220
100
AcDbEntity
8
0
100
AcDbLine
10
157.5
20
233.72222221917082
30
0
11
157.5
21
236.72222278757744
31
0
0
LINE
5
221
100
AcDbEntity
8
0
100
AcDbLine
10
157.5
20
236.72222278757744
30
0
11
140
21
236.72222278757744
31
0
0
LINE
5
222
100
AcDbEntity
8
0
100
AcDbLine
10
175
20
0
30
0
11
175
21
303.50000056535521
31
0
0
LWPOLYLINE
5
223
100
AcDbEntity
8
0
100
AcDbPolyline
90
4
70
1
43
0.0
10
245
20
0
10
245
20
338.5
10
210
20
303.50000056535521
10
210
20
0
0
LINE
5
224
100
AcDbEntity
8
0
100
AcDbLine
10
192.5
20
300.49999999694853
30
0
11
192.5
21
303.50000056535521
31
0
0
LINE
5
225
100
AcDbEntity
8
0
100
AcDbLine
10
192.5
20
303.50000056535521
30
0
11
175
21
303.50000056535521
31
0
0
LINE
5
226
100
AcDbEntity
8
0
100
AcDbLine
10
192.5
20
270.11111167646629
30
0
11
175
21
270.11111167646629
31
0
0
LINE
5
227
100
AcDbEntity
8
0
100
AcDbLine
10
140
20
300.49999999694853
30
0
11
157.5
21
300.49999999694853
31
0
0
LINE
5
228
100
AcDbEntity
8
0
100
AcDbLine
10
192.5
20
233.72222221917082
30
0
11
192.5
21
236.72222278757744
31
0
0
LINE
5
229
100
AcDbEntity
8
0
100
AcDbLine
10
175
20
267.11111110805967
30
0
11
192.5
21
267.11111110805967
31
0
0
LINE
5
230
100
AcDbEntity
8
0
100
AcDbLine
10
192.5
20
267.11111110805967
30
0
11
192.5
21
270.11111167646629
31
0
0
LINE
5
231
100
AcDbEntity
8
0
100
AcDbLine
10
140
20
166.94444444139299
30
0
11
157.5
21
166.94444444139299
31
0
0
LINE
5
232
100
AcDbEntity
8
0
100
AcDbLine
10
157.5
20
103.16666723202188
30
0
11
140
21
103.16666723202188
31
0
0
LINE
5
233
100
AcDbEntity
8
0
100
AcDbLine
10
175
20
66.777777774726317
30
0
11
192.5
21
66.777777774726317
31
0
0
LINE
5
234
100
AcDbEntity
8
0
100
AcDbLine
10
175
20
133.55555555250413
30
0
11
192.5
21
133.55555555250413
31
0
0
LINE
5
235
100
AcDbEntity
8
0
100
AcDbLine
10
210
20
133.55555555250413
30
0
11
227.5
21
133.55555555250413
31
0
0
LINE
5
236
100
AcDbEntity
8
0
100
AcDbLine
10
227.5
20
36.388889454244115
30
0
11
210
21
36.388889454244115
31
0
0
LINE
5
237
100
AcDbEntity
8
0
100
AcDbLine
10
210
20
303.50000056535521
30
0
11
210
21
338.5
31
0
0
LINE
5
238
100
AcDbEntity
8
0
100
AcDbLine
10
157.5
20
69.777778343133008
30
0
11
140
21
69.777778343133008
31
0
0
LINE
5
239
100
AcDbEntity
8
0
100
AcDbLine
10
210
20
200.33333333028193
30
0
11
227.5
21
200.33333333028193
31
0
0
LINE
5
240
100
AcDbEntity
8
0
100
AcDbLine
10
140
20
33.388888885837453
30
0
11
157.5
21
33.388888885837453
31
0
0
LINE
5
241
100
AcDbEntity
8
0
100
AcDbLine
10
210
20
66.777777774726317
30
0
11
227.5
21
66.777777774726317
31
0
0
LINE
5
242
100
AcDbEntity
8
0
100
AcDbLine
10
192.5
20
36.388889454244115
30
0
11
175
21
36.388889454244115
31
0
0
LINE
5
243
100
AcDbEntity
8
0
100
AcDbLine
10
210
20
100.16666666361523
30
0
11
227.5
21
100.16666666361523
31
0
0
LINE
5
244
100
AcDbEntity
8
0
100
AcDbLine
10
192.5
20
133.55555555250413
30
0
11
192.5
21
136.55555612091078
31
0
0
LINE
5
245
100
AcDbEntity
8
0
100
AcDbLine
10
192.5
20
166.94444444139299
30
0
11
192.5
21
169.94444500979969
31
0
0
LINE
5
246
100
AcDbEntity
8
0
100
AcDbLine
10
192.5
20
100.16666666361523
30
0
11
192.5
21
103.16666723202188
31
0
0
LINE
5
247
100
AcDbEntity
8
0
100
AcDbLine
10
192.5
20
33.388888885837453
30
0
11
192.5
21
36.388889454244115
31
0
0
LINE
5
248
100
AcDbEntity
8
0
100
AcDbLine
10
140
20
100.16666666361523
30
0
11
157.5
21
100.16666666361523
31
0
0
LINE
5
249
100
AcDbEntity
8
0
100
AcDbLine
10
175
20
166.94444444139299
30
0
11
192.5
21
166.94444444139299
31
0
0
LINE
5
250
100
AcDbEntity
8
0
100
AcDbLine
10
157.5
20
169.94444500979969
30
0
11
140
21
169.94444500979969
31
0
0
LINE
5
251
100
AcDbEntity
8
0
100
AcDbLine
10
157.5
20
133.55555555250413
30
0
11
157.5
21
136.55555612091078
31
0
0
LINE
5
252
100
AcDbEntity
8
0
100
AcDbLine
10
157.5
20
267.11111110805967
30
0
11
157.5
21
270.11111167646629
31
0
0
LINE
5
253
100
AcDbEntity
8
0
100
AcDbLine
10
157.5
20
203.33333389868855
30
0
11
140
21
203.33333389868855
31
0
0
LINE
5
254
100
AcDbEntity
8
0
100
AcDbLine
10
175
20
300.49999999694853
30
0
11
192.5
21
300.49999999694853
31
0
0
LINE
5
255
100
AcDbEntity
8
0
100
AcDbLine
10
175
20
233.72222221917082
30
0
11
192.5
21
233.72222221917082
31
0
0
LINE
5
256
100
AcDbEntity
8
0
100
AcDbLine
10
175
20
303.50000056535521
30
0
11
210
21
338.5
31
0
0
LINE
5
257
100
AcDbEntity
8
0
100
AcDbLine
10
157.5
20
36.388889454244115
30
0
11
140
21
36.388889454244115
31
0
0
LINE
5
258
100
AcDbEntity
8
0
100
AcDbLine
10
140
20
133.55555555250413
30
0
11
157.5
21
133.55555555250413
31
0
0
LINE
5
259
100
AcDbEntity
8
0
100
AcDbLine
10
192.5
20
203.33333389868855
30
0
11
175
21
203.33333389868855
31
0
0
LINE
5
260
100
AcDbEntity
8
0
100
AcDbLine
10
157.5
20
200.33333333028193
30
0
11
157.5
21
203.33333389868855
31
0
0
LINE
5
261
100
AcDbEntity
8
0
100
AcDbLine
10
245
20
0
30
0
11
245
21
303.50000056535521
31
0
0
LINE
5
262
100
AcDbEntity
8
0
100
AcDbLine
10
157.5
20
270.11111167646629
30
0
11
140
21
270.11111167646629
31
0
0
LINE
5
263
100
AcDbEntity
8
0
100
AcDbLine
10
157.5
20
100.16666666361523
30
0
11
157.5
21
103.16666723202188
31
0
0
LINE
5
264
100
AcDbEntity
8
0
100
AcDbLine
10
175
20
0
30
0
11
210
21
0
31
0
0
LINE
5
265
100
AcDbEntity
8
0
100
AcDbLine
10
157.5
20
136.55555612091078
30
0
11
140
21
136.55555612091078
31
0
0
LINE
5
266
100
AcDbEntity
8
0
100
AcDbLine
10
227.5
20
69.777778343133008
30
0
11
210
21
69.777778343133008
31
0
0
LINE
5
267
100
AcDbEntity
8
0
100
AcDbLine
10
157.5
20
33.388888885837453
30
0
11
157.5
21
36.388889454244115
31
0
0
LINE
5
268
100
AcDbEntity
8
0
100
AcDbLine
10
227.5
20
66.777777774726317
30
0
11
227.5
21
69.777778343133008
31
0
0
LINE
5
269
100
AcDbEntity
8
0
100
AcDbLine
10
227.5
20
303.50000056535521
30
0
11
210
21
303.50000056535521
31
0
0
LINE
5
270
100
AcDbEntity
8
0
100
AcDbLine
10
227.5
20
233.72222221917082
30
0
11
227.5
21
236.72222278757744
31
0
0
LINE
5
271
100
AcDbEntity
8
0
100
AcDbLine
10
227.5
20
103.16666723202188
30
0
11
210
21
103.16666723202188
31
0
0
LINE
5
272
100
AcDbEntity
8
0
100
AcDbLine
10
227.5
20
133.55555555250413
30
0
11
227.5
21
136.55555612091078
31
0
0
LINE
5
273
100
AcDbEntity
8
0
100
AcDbLine
10
227.5
20
166.94444444139299
30
0
11
227.5
21
169.94444500979969
31
0
0
LINE
5
274
100
AcDbEntity
8
0
100
AcDbLine
10
192.5
20
69.777778343133008
30
0
11
175
21
69.777778343133008
31
0
0
LINE
5
275
100
AcDbEntity
8
0
100
AcDbLine
10
192.5
20
136.55555612091078
30
0
11
175
21
136.55555612091078
31
0
0
LINE
5
276
100
AcDbEntity
8
0
100
AcDbLine
10
210
20
33.388888885837453
30
0
11
227.5
21
33.388888885837453
31
0
0
LINE
5
277
100
AcDbEntity
8
0
100
AcDbLine
10
210
20
233.72222221917082
30
0
11
227.5
21
233.72222221917082
31
0
0
LINE
5
278
100
AcDbEntity
8
0
100
AcDbLine
10
227.5
20
267.11111110805967
30
0
11
227.5
21
270.11111167646629
31
0
0
LINE
5
279
100
AcDbEntity
8
0
100
AcDbLine
10
192.5
20
66.777777774726317
30
0
11
192.5
21
69.777778343133008
31
0
0
LINE
5
280
100
AcDbEntity
8
0
100
AcDbLine
10
227.5
20
300.49999999694853
30
0
11
227.5
21
303.50000056535521
31
0
0
LINE
5
281
100
AcDbEntity
8
0
100
AcDbLine
10
227.5
20
136.55555612091078
30
0
11
210
21
136.55555612091078
31
0
0
LINE
5
282
100
AcDbEntity
8
0
100
AcDbLine
10
157.5
20
166.94444444139299
30
0
11
157.5
21
169.94444500979969
31
0
0
LINE
5
283
100
AcDbEntity
8
0
100
AcDbLine
10
227.5
20
200.33333333028193
30
0
11
227.5
21
203.33333389868855
31
0
0
LINE
5
284
100
AcDbEntity
8
0
100
AcDbLine
10
227.5
20
100.16666666361523
30
0
11
227.5
21
103.16666723202188
31
0
0
LINE
5
285
100
AcDbEntity
8
0
100
AcDbLine
10
210
20
267.11111110805967
30
0
11
227.5
21
267.11111110805967
31
0
0
LINE
5
286
100
AcDbEntity
8
0
100
AcDbLine
10
227.5
20
236.72222278757744
30
0
11
210
21
236.72222278757744
31
0
0
LINE
5
287
100
AcDbEntity
8
0
100
AcDbLine
10
157.5
20
66.777777774726317
30
0
11
157.5
21
69.777778343133008
31
0
0
LINE
5
288
100
AcDbEntity
8
0
100
AcDbLine
10
210
20
166.94444444139299
30
0
11
227.5
21
166.94444444139299
31
0
0
LINE
5
289
100
AcDbEntity
8
0
100
AcDbLine
10
227.5
20
33.388888885837453
30
0
11
227.5
21
36.388889454244115
31
0
0
LINE
5
290
100
AcDbEntity
8
0
100
AcDbLine
10
192.5
20
103.16666723202188
30
0
11
175
21
103.16666723202188
31
0
0
LINE
5
291
100
AcDbEntity
8
0
100
AcDbLine
10
175
20
33.388888885837453
30
0
11
192.5
21
33.388888885837453
31
0
0
LINE
5
292
100
AcDbEntity
8
0
100
AcDbLine
10
227.5
20
203.33333389868855
30
0
11
210
21
203.33333389868855
31
0
0
LINE
5
293
100
AcDbEntity
8
0
100
AcDbLine
10
175
20
100.16666666361523
30
0
11
192.5
21
100.16666666361523
31
0
0
LINE
5
294
100
AcDbEntity
8
0
100
AcDbLine
10
227.5
20
169.94444500979969
30
0
11
210
21
169.94444500979969
31
0
0
LINE
5
295
100
AcDbEntity
8
0
100
AcDbLine
10
227.5
20
270.11111167646629
30
0
11
210
21
270.11111167646629
31
0
0
LINE
5
296
100
AcDbEntity
8
0
100
AcDbLine
10
210
20
300.49999999694853
30
0
11
227.5
21
300.49999999694853
31
0
0
LINE
5
297
100
AcDbEntity
8
0
100
AcDbLine
10
140
20
66.777777774726317
30
0
11
157.5
21
66.777777774726317
31
0
0
LINE
5
298
100
AcDbEntity
8
0
100
AcDbLine
10
192.5
20
169.94444500979969
30
0
11
175
21
169.94444500979969
31
0
0
LINE
5
299
100
AcDbEntity
8
0
100
AcDbLine
10
157.5
20
300.49999999694853
30
0
11
157.5
21
303.50000056535521
31
0
0
LINE
5
300
100
AcDbEntity
8
0
100
AcDbLine
10
140
20
200.33333333028193
30
0
11
157.5
21
200.33333333028193
31
0
0
LINE
5
301
100
AcDbEntity
8
0
100
AcDbLine
10
140
20
233.72222221917082
30
0
11
157.5
21
233.72222221917082
31
0
0
LINE
5
302
100
AcDbEntity
8
0
100
AcDbLine
10
157.5
20
303.50000056535521
30
0
11
140
21
303.50000056535521
31
0
0
LINE
5
303
100
AcDbEntity
8
0
100
AcDbLine
10
175
20
200.33333333028193
30
0
11
192.5
21
200.33333333028193
31
0
0
LINE
5
304
100
AcDbEntity
8
0
100
AcDbLine
10
192.5
20
200.33333333028193
30
0
11
192.5
21
203.33333389868855
31
0
0
LINE
5
305
100
AcDbEntity
8
0
100
AcDbLine
10
140
20
303.50000056535521
30
0
11
140
21
338.5
31
0
0
ENDSEC
0
SECTION
2
OBJECTS
0
DICTIONARY
5
C
100
AcDbDictionary
3
ACAD_GROUP
350
D
3
ACAD_MLINESTYLE
350
17
0
DICTIONARY
5
D
100
AcDbDictionary
0
DICTIONARY
5
1A
330
C
100
AcDbDictionary
0
DICTIONARY
5
17
100
AcDbDictionary
0
ENDSEC
0
EOF
