0
SECTION
2
HEADER
9
$INSUNITS
70
4
9
$ACADVER
1
AC1014
9
$HANDSEED
5
FFFF
0
ENDSEC
0
SECTION
2
TABLES
0
TABLE
2
VPORT
5
8
100
AcDbSymbolTable
0
ENDTAB
0
TABLE
2
LTYPE
5
5
100
AcDbSymbolTable
0
LTYPE
5
14
100
AcDbSymbolTableRecord
100
AcDbLinetypeTableRecord
2
BYBLOCK
70
0
0
LTYPE
5
15
100
AcDbSymbolTableRecord
100
AcDbLinetypeTableRecord
2
BYLAYER
70
0
0
ENDTAB
0
TABLE
2
LAYER
5
2
100
AcDbSymbolTable
70
2
0
LAYER
5
50
100
AcDbSymbolTableRecord
100
AcDbLayerTableRecord
2
0
70
0
6
CONTINUOUS
0
ENDTAB
0
TABLE
2
STYLE
5
3
100
AcDbSymbolTable
70
1
0
STYLE
5
11
100
AcDbSymbolTableRecord
100
AcDbTextStyleTableRecord
2
STANDARD
70
0
0
ENDTAB
0
TABLE
2
VIEW
5
6
100
AcDbSymbolTable
70
0
0
ENDTAB
0
TABLE
2
UCS
5
7
100
AcDbSymbolTable
70
0
0
ENDTAB
0
TABLE
2
APPID
5
9
100
AcDbSymbolTable
70
2
0
APPID
5
12
100
AcDbSymbolTableRecord
100
AcDbRegAppTableRecord
2
ACAD
70
0
0
ENDTAB
0
TABLE
2
DIMSTYLE
5
A
100
AcDbSymbolTable
70
1
0
ENDTAB
0
TABLE
2
BLOCK_RECORD
5
1
100
AcDbSymbolTable
70
1
0
BLOCK_RECORD
5
1F
100
AcDbSymbolTableRecord
100
AcDbBlockTableRecord
2
*MODEL_SPACE
0
BLOCK_RECORD
5
1B
100
AcDbSymbolTableRecord
100
AcDbBlockTableRecord
2
*PAPER_SPACE
0
ENDTAB
0
ENDSEC
0
SECTION
2
BLOCKS
0
BLOCK
5
20
100
AcDbEntity
100
AcDbBlockBegin
2
*MODEL_SPACE
0
ENDBLK
5
21
100
AcDbEntity
100
AcDbBlockEnd
0
BLOCK
5
1C
100
AcDbEntity
100
AcDbBlockBegin
2
*PAPER_SPACE
0
ENDBLK
5
1D
100
AcDbEntity
100
AcDbBlockEnd
0
ENDSEC
0
SECTION
2
ENTITIES
0
LWPOLYLINE
5
100
100
AcDbEntity
8
0
100
AcDbPolyline
90
82
70
1
43
0.0
10
17.5
20
67.874999997837463
10
17.5
20
70.875000566244125
10
0
20
70.875000566244125
10
0
20
100.74999999783743
10
17.5
20
100.74999999783743
10
17.5
20
103.75000056624415
10
0
20
103.75000056624415
10
0
20
133.62499999783745
10
17.5
20
133.62499999783745
10
17.5
20
136.62500056624413
10
0
20
136.62500056624413
10
0
20
166.49999999783742
10
17.5
20
166.49999999783742
10
17.5
20
169.50000056624415
10
0
20
169.50000056624415
10
0
20
199.37499999783745
10
17.5
20
199.37499999783745
10
17.5
20
202.37500056624413
10
0
20
202.37500056624413
10
0
20
232.24999999783748
10
17.5
20
232.24999999783748
10
17.5
20
235.25000056624413
10
0
20
235.25000056624413
10
0
20
265.12499999783751
10
17.5
20
265.12499999783751
10
17.5
20
268.12500056624413
10
0
20
268.12500056624413
10
0
20
297.99999999783751
10
17.5
20
297.99999999783751
10
17.5
20
301.00000056624418
10
0
20
301.00000056624418
10
0
20
335.99999999999994
10
34.999999941268889
20
300.99999994126892
10
69.999999882537779
20
335.99999999999994
10
104.99999994126888
20
300.99999994126892
10
139.99999988253776
20
335.99999999999994
10
139.99999988253776
20
301.00000056624418
10
122.49999988253776
20
301.00000056624418
10
122.49999988253776
20
297.99999999783751
10
139.99999988253776
20
297.99999999783751
10
139.99999988253776
20
268.12500056624413
10
122.49999988253776
20
268.12500056624413
10
122.49999988253776
20
265.12499999783751
10
139.99999988253776
20
265.12499999783751
10
139.99999988253776
20
235.25000056624413
10
122.49999988253776
20
235.25000056624413
10
122.49999988253776
20
232.24999999783748
10
139.99999988253776
20
232.24999999783748
10
139.99999988253776
20
202.37500056624413
10
122.49999988253776
20
202.37500056624413
10
122.49999988253776
20
199.37499999783745
10
139.99999988253776
20
199.37499999783745
10
139.99999988253776
20
169.50000056624415
10
122.49999988253776
20
169.50000056624415
10
122.49999988253776
20
166.49999999783742
10
139.99999988253776
20
166.49999999783742
10
139.99999988253776
20
136.62500056624413
10
122.49999988253776
20
136.62500056624413
10
122.49999988253776
20
133.62499999783745
10
139.99999988253776
20
133.62499999783745
10
139.99999988253776
20
103.75000056624415
10
122.49999988253776
20
103.75000056624415
10
122.49999988253776
20
100.74999999783743
10
139.99999988253776
20
100.74999999783743
10
139.99999988253776
20
70.875000566244125
10
122.49999988253776
20
70.875000566244125
10
122.49999988253776
20
67.874999997837463
10
139.99999988253776
20
67.874999997837463
10
139.99999988253776
20
38.000000566244132
10
122.49999988253776
20
38.000000566244132
10
122.49999988253776
20
34.999999997837449
10
139.99999988253776
20
34.999999997837449
10
139.99999988253776
20
0
10
104.99999994126888
20
34.999999941268889
10
69.999999882537779
20
0
10
34.999999941268889
20
34.999999941268882
10
0
20
0
10
0
20
34.999999997837449
10
17.5
20
34.999999997837449
10
17.5
20
38.000000566244132
10
0
20
38.000000566244132
10
0
20
67.874999997837463
0
LINE
5
101
100
AcDbEntity
8
0
100
AcDbLine
10
34.999999941268889
20
300.99999994126892
30
0
11
34.999999941268889
21
34.999999941268882
31
0
0
LWPOLYLINE
5
102
100
AcDbEntity
8
0
100
AcDbPolyline
90
6
70
1
43
0.0
10
52.499999882537793
20
235.25000056624413
10
69.999999882537779
20
235.25000056624413
10
87.5
20
235.25000056624413
10
87.5
20
232.24999999783748
10
69.999999882537779
20
232.24999999783748
10
52.499999882537793
20
232.24999999783748
0
LWPOLYLINE
5
103
100
AcDbEntity
8
0
100
AcDbPolyline
90
6
70
1
43
0.0
10
69.999999882537779
20
100.74999999783743
10
52.499999882537793
20
100.74999999783743
10
52.499999882537793
20
103.75000056624415
10
69.999999882537779
20
103.75000056624415
10
87.5
20
103.75000056624415
10
87.5
20
100.74999999783743
0
LWPOLYLINE
5
104
100
AcDbEntity
8
0
100
AcDbPolyline
90
6
70
1
43
0.0
10
52.499999882537793
20
136.62500056624413
10
69.999999882537779
20
136.62500056624413
10
87.5
20
136.62500056624413
10
87.5
20
133.62499999783745
10
69.999999882537779
20
133.62499999783745
10
52.499999882537793
20
133.62499999783745
0
LWPOLYLINE
5
105
100
AcDbEntity
8
0
100
AcDbPolyline
90
6
70
1
43
0.0
10
52.499999882537793
20
268.12500056624413
10
69.999999882537779
20
268.12500056624413
10
87.5
20
268.12500056624413
10
87.5
20
265.12499999783751
10
69.999999882537779
20
265.12499999783751
10
52.499999882537793
20
265.12499999783751
0
LWPOLYLINE
5
106
100
AcDbEntity
8
0
100
AcDbPolyline
90
6
70
1
43
0.0
10
69.999999882537779
20
297.99999999783751
10
52.499999882537793
20
297.99999999783751
10
52.499999882537793
20
301.00000056624418
10
69.999999882537779
20
301.00000056624418
10
87.5
20
301.00000056624418
10
87.5
20
297.99999999783751
0
LWPOLYLINE
5
107
100
AcDbEntity
8
0
100
AcDbPolyline
90
6
70
1
43
0.0
10
52.499999882537793
20
169.50000056624415
10
69.999999882537779
20
169.50000056624415
10
87.5
20
169.50000056624415
10
87.5
20
166.49999999783742
10
69.999999882537779
20
166.49999999783742
10
52.499999882537793
20
166.49999999783742
0
LWPOLYLINE
5
108
100
AcDbEntity
8
0
100
AcDbPolyline
90
6
70
1
43
0.0
10
69.999999882537779
20
199.37499999783745
10
52.499999882537793
20
199.37499999783745
10
52.499999882537793
20
202.37500056624413
10
69.999999882537779
20
202.37500056624413
10
87.5
20
202.37500056624413
10
87.5
20
199.37499999783745
0
LWPOLYLINE
5
109
100
AcDbEntity
8
0
100
AcDbPolyline
90
6
70
1
43
0.0
10
52.499999882537793
20
34.999999997837449
10
52.499999882537793
20
38.000000566244132
10
69.999999882537779
20
38.000000566244132
10
87.5
20
38.000000566244132
10
87.5
20
34.999999997837449
10
69.999999882537779
20
34.999999997837449
0
LWPOLYLINE
5
110
100
AcDbEntity
8
0
100
AcDbPolyline
90
6
70
1
43
0.0
10
52.499999882537793
20
67.874999997837463
10
52.499999882537793
20
70.875000566244125
10
69.999999882537779
20
70.875000566244125
10
87.5
20
70.875000566244125
10
87.5
20
67.874999997837463
10
69.999999882537779
20
67.874999997837463
0
LINE
5
111
100
AcDbEntity
8
0
100
AcDbLine
10
69.999999882537779
20
136.62500056624413
30
0
11
69.999999882537779
21
166.49999999783742
31
0
0
LINE
5
112
100
AcDbEntity
8
0
100
AcDbLine
10
69.999999882537779
20
70.875000566244125
30
0
11
69.999999882537779
21
100.74999999783743
31
0
0
LINE
5
113
100
AcDbEntity
8
0
100
AcDbLine
10
69.999999882537779
20
169.50000056624415
30
0
11
69.999999882537779
21
199.37499999783745
31
0
0
LINE
5
114
100
AcDbEntity
8
0
100
AcDbLine
10
69.999999882537779
20
301.00000056624418
30
0
11
69.999999882537779
21
335.99999999999994
31
0
0
LINE
5
115
100
AcDbEntity
8
0
100
AcDbLine
10
69.999999882537779
20
0
30
0
11
69.999999882537779
21
34.999999997837449
31
0
0
LINE
5
116
100
AcDbEntity
8
0
100
AcDbLine
10
104.99999994126888
20
300.99999994126892
30
0
11
104.99999994126888
21
34.999999941268889
31
0
0
LINE
5
117
100
AcDbEntity
8
0
100
AcDbLine
10
69.999999882537779
20
202.37500056624413
30
0
11
69.999999882537779
21
232.24999999783748
31
0
0
LINE
5
118
100
AcDbEntity
8
0
100
AcDbLine
10
69.999999882537779
20
103.75000056624415
30
0
11
69.999999882537779
21
133.62499999783745
31
0
0
LINE
5
119
100
AcDbEntity
8
0
100
AcDbLine
10
69.999999882537779
20
38.000000566244132
30
0
11
69.999999882537779
21
67.874999997837463
31
0
0
LINE
5
120
100
AcDbEntity
8
0
100
AcDbLine
10
69.999999882537779
20
268.12500056624413
30
0
11
69.999999882537779
21
297.99999999783751
31
0
0
LINE
5
121
100
AcDbEntity
8
0
100
AcDbLine
10
69.999999882537779
20
235.25000056624413
30
0
11
69.999999882537779
21
265.12499999783751
31
0
0
LINE
5
122
100
AcDbEntity
8
0
100
AcDbLine
10
157.5
20
232.24999999783748
30
0
11
157.5
21
235.25000056624413
31
0
0
LINE
5
123
100
AcDbEntity
8
0
100
AcDbLine
10
157.5
20
235.25000056624413
30
0
11
140
21
235.25000056624413
31
0
0
LINE
5
124
100
AcDbEntity
8
0
100
AcDbLine
10
157.5
20
166.49999999783742
30
0
11
157.5
21
169.50000056624415
31
0
0
LWPOLYLINE
5
125
100
AcDbEntity
8
0
100
AcDbPolyline
90
6
70
1
43
0.0
10
192.49999988253779
20
199.37499999783745
10
192.49999988253779
20
202.37500056624413
10
209.99999988253776
20
202.37500056624413
10
227.5
20
202.37500056624413
10
227.5
20
199.37499999783745
10
209.99999988253776
20
199.37499999783745
0
LINE
5
126
100
AcDbEntity
8
0
100
AcDbLine
10
157.5
20
301.00000056624418
30
0
11
140
21
301.00000056624418
31
0
0
LWPOLYLINE
5
127
100
AcDbEntity
8
0
100
AcDbPolyline
90
6
70
1
43
0.0
10
192.49999988253779
20
265.12499999783751
10
192.49999988253779
20
268.12500056624413
10
209.99999988253776
20
268.12500056624413
10
227.5
20
268.12500056624413
10
227.5
20
265.12499999783751
10
209.99999988253776
20
265.12499999783751
0
LWPOLYLINE
5
128
100
AcDbEntity
8
0
100
AcDbPolyline
90
6
70
1
43
0.0
10
192.49999988253779
20
301.00000056624418
10
209.99999988253776
20
301.00000056624418
10
227.5
20
301.00000056624418
10
227.5
20
297.99999999783751
10
209.99999988253776
20
297.99999999783751
10
192.49999988253779
20
297.99999999783751
0
LWPOLYLINE
5
129
100
AcDbEntity
8
0
100
AcDbPolyline
90
40
70
1
43
0.0
10
279.99999988253774
20
0
10
279.99999988253774
20
34.999999997837449
10
262.49999988253774
20
34.999999997837449
10
262.49999988253774
20
38.000000566244132
10
279.99999988253774
20
38.000000566244132
10
279.99999988253774
20
67.874999997837463
10
262.49999988253774
20
67.874999997837463
10
262.49999988253774
20
70.875000566244125
10
279.99999988253774
20
70.875000566244125
10
279.99999988253774
20
100.74999999783743
10
262.49999988253774
20
100.74999999783743
10
262.49999988253774
20
103.75000056624415
10
279.99999988253774
20
103.75000056624415
10
279.99999988253774
20
133.62499999783745
10
262.49999988253774
20
133.62499999783745
10
262.49999988253774
20
136.62500056624413
10
279.99999988253774
20
136.62500056624413
10
279.99999988253774
20
166.49999999783742
10
262.49999988253774
20
166.49999999783742
10
262.49999988253774
20
169.50000056624415
10
279.99999988253774
20
169.50000056624415
10
279.99999988253774
20
199.37499999783745
10
262.49999988253774
20
199.37499999783745
10
262.49999988253774
20
202.37500056624413
10
279.99999988253774
20
202.37500056624413
10
279.99999988253774
20
232.24999999783748
10
262.49999988253774
20
232.24999999783748
10
262.49999988253774
20
235.25000056624413
10
279.99999988253774
20
235.25000056624413
10
279.99999988253774
20
265.12499999783751
10
262.49999988253774
20
265.12499999783751
10
262.49999988253774
20
268.12500056624413
10
279.99999988253774
20
268.12500056624413
10
279.99999988253774
20
297.99999999783751
10
262.49999988253774
20
297.99999999783751
10
262.49999988253774
20
301.00000056624418
10
279.99999988253774
20
301.00000056624418
10
279.99999988253774
20
335.99999999999994
10
244.99999994126887
20
300.99999994126892
10
244.99999994126887
20
34.999999941268889
0
LWPOLYLINE
5
130
100
AcDbEntity
8
0
100
AcDbPolyline
90
6
70
1
43
0.0
10
209.99999988253776
20
67.874999997837463
10
192.49999988253779
20
67.874999997837463
10
192.49999988253779
20
70.875000566244125
10
209.99999988253776
20
70.875000566244125
10
227.5
20
70.875000566244125
10
227.5
20
67.874999997837463
0
LWPOLYLINE
5
131
100
AcDbEntity
8
0
100
AcDbPolyline
90
6
70
1
43
0.0
10
209.99999988253776
20
34.999999997837449
10
227.5
20
34.999999997837449
10
227.5
20
38.000000566244132
10
209.99999988253776
20
38.000000566244132
10
192.49999988253779
20
38.000000566244132
10
192.49999988253779
20
34.999999997837449
0
LINE
5
132
100
AcDbEntity
8
0
100
AcDbLine
10
209.99999988253776
20
38.000000566244132
30
0
11
209.99999988253776
21
67.874999997837463
31
0
0
LINE
5
133
100
AcDbEntity
8
0
100
AcDbLine
10
174.99999994126887
20
34.999999941268882
30
0
11
140
21
0
31
0
0
LINE
5
134
100
AcDbEntity
8
0
100
AcDbLine
10
140
20
34.999999997837449
30
0
11
157.5
21
34.999999997837449
31
0
0
LINE
5
135
100
AcDbEntity
8
0
100
AcDbLine
10
157.5
20
34.999999997837449
30
0
11
157.5
21
38.000000566244132
31
0
0
LINE
5
136
100
AcDbEntity
8
0
100
AcDbLine
10
209.99999988253776
20
0
30
0
11
209.99999988253776
21
34.999999997837449
31
0
0
LINE
5
137
100
AcDbEntity
8
0
100
AcDbLine
10
140
20
265.12499999783751
30
0
11
157.5
21
265.12499999783751
31
0
0
LINE
5
138
100
AcDbEntity
8
0
100
AcDbLine
10
157.5
20
70.875000566244125
30
0
11
140
21
70.875000566244125
31
0
0
LWPOLYLINE
5
139
100
AcDbEntity
8
0
100
AcDbPolyline
90
6
70
1
43
0.0
10
227.5
20
235.25000056624413
10
209.99999988253776
20
235.25000056624413
10
192.49999988253779
20
235.25000056624413
10
192.49999988253779
20
232.24999999783748
10
209.99999988253776
20
232.24999999783748
10
227.5
20
232.24999999783748
0
LINE
5
140
100
AcDbEntity
8
0
100
AcDbLine
10
209.99999988253776
20
70.875000566244125
30
0
11
209.99999988253776
21
100.74999999783743
31
0
0
LINE
5
141
100
AcDbEntity
8
0
100
AcDbLine
10
157.5
20
268.12500056624413
30
0
11
140
21
268.12500056624413
31
0
0
LWPOLYLINE
5
142
100
AcDbEntity
8
0
100
AcDbPolyline
90
6
70
1
43
0.0
10
209.99999988253776
20
133.62499999783745
10
227.5
20
133.62499999783745
10
227.5
20
136.62500056624413
10
209.99999988253776
20
136.62500056624413
10
192.49999988253779
20
136.62500056624413
10
192.49999988253779
20
133.62499999783745
0
LWPOLYLINE
5
143
100
AcDbEntity
8
0
100
AcDbPolyline
90
6
70
1
43
0.0
10
209.99999988253776
20
166.49999999783742
10
192.49999988253779
20
166.49999999783742
10
192.49999988253779
20
169.50000056624415
10
209.99999988253776
20
169.50000056624415
10
227.5
20
169.50000056624415
10
227.5
20
166.49999999783742
0
LINE
5
144
100
AcDbEntity
8
0
100
AcDbLine
10
209.99999988253776
20
235.25000056624413
30
0
11
209.99999988253776
21
265.12499999783751
31
0
0
LINE
5
145
100
AcDbEntity
8
0
100
AcDbLine
10
140
20
335.99999999999994
30
0
11
174.99999994126887
21
300.99999994126892
31
0
0
LINE
5
146
100
AcDbEntity
8
0
100
AcDbLine
10
209.99999988253776
20
169.50000056624415
30
0
11
209.99999988253776
21
199.37499999783745
31
0
0
LINE
5
147
100
AcDbEntity
8
0
100
AcDbLine
10
157.5
20
38.000000566244132
30
0
11
140
21
38.000000566244132
31
0
0
LINE
5
148
100
AcDbEntity
8
0
100
AcDbLine
10
157.5
20
297.99999999783751
30
0
11
157.5
21
301.00000056624418
31
0
0
LINE
5
149
100
AcDbEntity
8
0
100
AcDbLine
10
174.99999994126887
20
300.99999994126892
30
0
11
209.99999988253776
21
335.99999999999994
31
0
0
LINE
5
150
100
AcDbEntity
8
0
100
AcDbLine
10
209.99999988253776
20
202.37500056624413
30
0
11
209.99999988253776
21
232.24999999783748
31
0
0
LINE
5
151
100
AcDbEntity
8
0
100
AcDbLine
10
209.99999988253776
20
301.00000056624418
30
0
11
209.99999988253776
21
335.99999999999994
31
0
0
LINE
5
152
100
AcDbEntity
8
0
100
AcDbLine
10
157.5
20
169.50000056624415
30
0
11
140
21
169.50000056624415
31
0
0
LINE
5
153
100
AcDbEntity
8
0
100
AcDbLine
10
157.5
20
199.37499999783745
30
0
11
157.5
21
202.37500056624413
31
0
0
LINE
5
154
100
AcDbEntity
8
0
100
AcDbLine
10
157.5
20
202.37500056624413
30
0
11
140
21
202.37500056624413
31
0
0
LINE
5
155
100
AcDbEntity
8
0
100
AcDbLine
10
140
20
199.37499999783745
30
0
11
157.5
21
199.37499999783745
31
0
0
LINE
5
156
100
AcDbEntity
8
0
100
AcDbLine
10
140
20
232.24999999783748
30
0
11
157.5
21
232.24999999783748
31
0
0
LINE
5
157
100
AcDbEntity
8
0
100
AcDbLine
10
140
20
166.49999999783742
30
0
11
157.5
21
166.49999999783742
31
0
0
LINE
5
158
100
AcDbEntity
8
0
100
AcDbLine
10
157.5
20
136.62500056624413
30
0
11
140
21
136.62500056624413
31
0
0
LINE
5
159
100
AcDbEntity
8
0
100
AcDbLine
10
140
20
67.874999997837463
30
0
11
157.5
21
67.874999997837463
31
0
0
LINE
5
160
100
AcDbEntity
8
0
100
AcDbLine
10
209.99999988253776
20
0
30
0
11
174.99999994126887
21
34.999999941268882
31
0
0
LINE
5
161
100
AcDbEntity
8
0
100
AcDbLine
10
209.99999988253776
20
268.12500056624413
30
0
11
209.99999988253776
21
297.99999999783751
31
0
0
LINE
5
162
100
AcDbEntity
8
0
100
AcDbLine
10
209.99999988253776
20
103.75000056624415
30
0
11
209.99999988253776
21
133.62499999783745
31
0
0
LINE
5
163
100
AcDbEntity
8
0
100
AcDbLine
10
157.5
20
265.12499999783751
30
0
11
157.5
21
268.12500056624413
31
0
0
LINE
5
164
100
AcDbEntity
8
0
100
AcDbLine
10
157.5
20
133.62499999783745
30
0
11
157.5
21
136.62500056624413
31
0
0
LINE
5
165
100
AcDbEntity
8
0
100
AcDbLine
10
157.5
20
67.874999997837463
30
0
11
157.5
21
70.875000566244125
31
0
0
LINE
5
166
100
AcDbEntity
8
0
100
AcDbLine
10
140
20
100.74999999783743
30
0
11
157.5
21
100.74999999783743
31
0
0
LINE
5
167
100
AcDbEntity
8
0
100
AcDbLine
10
140
20
297.99999999783751
30
0
11
157.5
21
297.99999999783751
31
0
0
LINE
5
168
100
AcDbEntity
8
0
100
AcDbLine
10
157.5
20
100.74999999783743
30
0
11
157.5
21
103.75000056624415
31
0
0
LWPOLYLINE
5
169
100
AcDbEntity
8
0
100
AcDbPolyline
90
6
70
1
43
0.0
10
227.5
20
103.75000056624415
10
209.99999988253776
20
103.75000056624415
10
192.49999988253779
20
103.75000056624415
10
192.49999988253779
20
100.74999999783743
10
209.99999988253776
20
100.74999999783743
10
227.5
20
100.74999999783743
0
LINE
5
170
100
AcDbEntity
8
0
100
AcDbLine
10
244.99999994126887
20
34.999999941268889
30
0
11
209.99999988253776
21
0
31
0
0
LINE
5
171
100
AcDbEntity
8
0
100
AcDbLine
10
140
20
133.62499999783745
30
0
11
157.5
21
133.62499999783745
31
0
0
LINE
5
172
100
AcDbEntity
8
0
100
AcDbLine
10
209.99999988253776
20
335.99999999999994
30
0
11
244.99999994126887
21
300.99999994126892
31
0
0
LINE
5
173
100
AcDbEntity
8
0
100
AcDbLine
10
157.5
20
103.75000056624415
30
0
11
140
21
103.75000056624415
31
0
0
LINE
5
174
100
AcDbEntity
8
0
100
AcDbLine
10
174.99999994126887
20
300.99999994126892
30
0
11
174.99999994126887
21
34.999999941268882
31
0
0
LINE
5
175
100
AcDbEntity
8
0
100
AcDbLine
10
209.99999988253776
20
136.62500056624413
30
0
11
209.99999988253776
21
166.49999999783742
31
0
0
LINE
5
176
100
AcDbEntity
8
0
100
AcDbLine
10
297.5
20
136.62500056624413
30
0
11
280
21
136.62500056624413
31
0
0
LINE
5
177
100
AcDbEntity
8
0
100
AcDbLine
10
297.5
20
199.37499999783745
30
0
11
297.5
21
202.37500056624413
31
0
0
LINE
5
178
100
AcDbEntity
8
0
100
AcDbLine
10
280
20
166.49999999783742
30
0
11
297.5
21
166.49999999783742
31
0
0
LINE
5
179
100
AcDbEntity
8
0
100
AcDbLine
10
297.5
20
202.37500056624413
30
0
11
280
21
202.37500056624413
31
0
0
LINE
5
180
100
AcDbEntity
8
0
100
AcDbLine
10
297.5
20
232.24999999783748
30
0
11
297.5
21
235.25000056624413
31
0
0
LINE
5
181
100
AcDbEntity
8
0
100
AcDbLine
10
280
20
199.37499999783745
30
0
11
297.5
21
199.37499999783745
31
0
0
LINE
5
182
100
AcDbEntity
8
0
100
AcDbLine
10
297.5
20
34.999999997837449
30
0
11
297.5
21
38.000000566244132
31
0
0
LINE
5
183
100
AcDbEntity
8
0
100
AcDbLine
10
297.5
20
100.74999999783743
30
0
11
297.5
21
103.75000056624415
31
0
0
LINE
5
184
100
AcDbEntity
8
0
100
AcDbLine
10
297.5
20
166.49999999783742
30
0
11
297.5
21
169.50000056624415
31
0
0
LINE
5
185
100
AcDbEntity
8
0
100
AcDbLine
10
297.5
20
235.25000056624413
30
0
11
280
21
235.25000056624413
31
0
0
LINE
5
186
100
AcDbEntity
8
0
100
AcDbLine
10
297.5
20
301.00000056624418
30
0
11
280
21
301.00000056624418
31
0
0
LINE
5
187
100
AcDbEntity
8
0
100
AcDbLine
10
280
20
297.99999999783751
30
0
11
297.5
21
297.99999999783751
31
0
0
LINE
5
188
100
AcDbEntity
8
0
100
AcDbLine
10
297.5
20
297.99999999783751
30
0
11
297.5
21
301.00000056624418
31
0
0
LINE
5
189
100
AcDbEntity
8
0
100
AcDbLine
10
280
20
265.12499999783751
30
0
11
297.5
21
265.12499999783751
31
0
0
LINE
5
190
100
AcDbEntity
8
0
100
AcDbLine
10
280
20
34.999999997837449
30
0
11
297.5
21
34.999999997837449
31
0
0
LINE
5
191
100
AcDbEntity
8
0
100
AcDbLine
10
280
20
100.74999999783743
30
0
11
297.5
21
100.74999999783743
31
0
0
LINE
5
192
100
AcDbEntity
8
0
100
AcDbLine
10
297.5
20
38.000000566244132
30
0
11
280
21
38.000000566244132
31
0
0
LINE
5
193
100
AcDbEntity
8
0
100
AcDbLine
10
280
20
133.62499999783745
30
0
11
297.5
21
133.62499999783745
31
0
0
LINE
5
194
100
AcDbEntity
8
0
100
AcDbLine
10
297.5
20
268.12500056624413
30
0
11
280
21
268.12500056624413
31
0
0
LINE
5
195
100
AcDbEntity
8
0
100
AcDbLine
10
280
20
232.24999999783748
30
0
11
297.5
21
232.24999999783748
31
0
0
LINE
5
196
100
AcDbEntity
8
0
100
AcDbLine
10
297.5
20
70.875000566244125
30
0
11
280
21
70.875000566244125
31
0
0
LINE
5
197
100
AcDbEntity
8
0
100
AcDbLine
10
297.5
20
133.62499999783745
30
0
11
297.5
21
136.62500056624413
31
0
0
LINE
5
198
100
AcDbEntity
8
0
100
AcDbLine
10
297.5
20
67.874999997837463
30
0
11
297.5
21
70.875000566244125
31
0
0
LINE
5
199
100
AcDbEntity
8
0
100
AcDbLine
10
297.5
20
265.12499999783751
30
0
11
297.5
21
268.12500056624413
31
0
0
LINE
5
200
100
AcDbEntity
8
0
100
AcDbLine
10
297.5
20
103.75000056624415
30
0
11
280
21
103.75000056624415
31
0
0
LINE
5
201
100
AcDbEntity
8
0
100
AcDbLine
10
297.5
20
169.50000056624415
30
0
11
280
21
169.50000056624415
31
0
0
LINE
5
202
100
AcDbEntity
8
0
100
AcDbLine
10
280
20
67.874999997837463
30
0
11
297.5
21
67.874999997837463
31
0
0
LINE
5
203
100
AcDbEntity
8
0
100
AcDbLine
10
314.99999994126887
20
34.999999941268882
30
0
11
280
21
0
31
0
0
LINE
5
204
100
AcDbEntity
8
0
100
AcDbLine
10
280
20
335.99999999999994
30
0
11
314.99999994126887
21
300.99999994126892
31
0
0
LINE
5
205
100
AcDbEntity
8
0
100
AcDbLine
10
314.99999994126887
20
300.99999994126892
30
0
11
314.99999994126887
21
34.999999941268882
31
0
0
ENDSEC
0
SECTION
2
OBJECTS
0
DICTIONARY
5
C
100
AcDbDictionary
3
ACAD_GROUP
350
D
3
ACAD_MLINESTYLE
350
17
0
DICTIONARY
5
D
100
AcDbDictionary
0
DICTIONARY
5
1A
330
C
100
AcDbDictionary
0
DICTIONARY
5
17
100
AcDbDictionary
0
ENDSEC
0
EOF
