0
SECTION
2
HEADER
9
$INSUNITS
70
4
9
$ACADVER
1
AC1014
9
$HANDSEED
5
FFFF
0
ENDSEC
0
SECTION
2
TABLES
0
TABLE
2
VPORT
5
8
100
AcDbSymbolTable
0
ENDTAB
0
TABLE
2
LTYPE
5
5
100
AcDbSymbolTable
0
LTYPE
5
14
100
AcDbSymbolTableRecord
100
AcDbLinetypeTableRecord
2
BYBLOCK
70
0
0
LTYPE
5
15
100
AcDbSymbolTableRecord
100
AcDbLinetypeTableRecord
2
BYLAYER
70
0
0
ENDTAB
0
TABLE
2
LAYER
5
2
100
AcDbSymbolTable
70
2
0
LAYER
5
50
100
AcDbSymbolTableRecord
100
AcDbLayerTableRecord
2
0
70
0
6
CONTINUOUS
0
ENDTAB
0
TABLE
2
STYLE
5
3
100
AcDbSymbolTable
70
1
0
STYLE
5
11
100
AcDbSymbolTableRecord
100
AcDbTextStyleTableRecord
2
STANDARD
70
0
0
ENDTAB
0
TABLE
2
VIEW
5
6
100
AcDbSymbolTable
70
0
0
ENDTAB
0
TABLE
2
UCS
5
7
100
AcDbSymbolTable
70
0
0
ENDTAB
0
TABLE
2
APPID
5
9
100
AcDbSymbolTable
70
2
0
APPID
5
12
100
AcDbSymbolTableRecord
100
AcDbRegAppTableRecord
2
ACAD
70
0
0
ENDTAB
0
TABLE
2
DIMSTYLE
5
A
100
AcDbSymbolTable
70
1
0
ENDTAB
0
TABLE
2
BLOCK_RECORD
5
1
100
AcDbSymbolTable
70
1
0
BLOCK_RECORD
5
1F
100
AcDbSymbolTableRecord
100
AcDbBlockTableRecord
2
*MODEL_SPACE
0
BLOCK_RECORD
5
1B
100
AcDbSymbolTableRecord
100
AcDbBlockTableRecord
2
*PAPER_SPACE
0
ENDTAB
0
ENDSEC
0
SECTION
2
BLOCKS
0
BLOCK
5
20
100
AcDbEntity
100
AcDbBlockBegin
2
*MODEL_SPACE
0
ENDBLK
5
21
100
AcDbEntity
100
AcDbBlockEnd
0
BLOCK
5
1C
100
AcDbEntity
100
AcDbBlockBegin
2
*PAPER_SPACE
0
ENDBLK
5
1D
100
AcDbEntity
100
AcDbBlockEnd
0
ENDSEC
0
SECTION
2
ENTITIES
0
LINE
5
100
100
AcDbEntity
8
0
100
AcDbLine
10
35
20
34.999999997837449
30
0
11
18.499999999999996
21
34.999999997837449
31
-2.1431318985078682e-15
0
LINE
5
101
100
AcDbEntity
8
0
100
AcDbLine
10
18.499999999999996
20
34.999999997837449
30
-2.1431318985078682e-15
11
18.499999999999996
21
38.000000566244132
31
-2.1431318985078682e-15
0
LINE
5
102
100
AcDbEntity
8
0
100
AcDbLine
10
18.499999999999996
20
38.000000566244132
30
-2.1431318985078682e-15
11
35
21
38.000000566244132
31
0
0
LINE
5
103
100
AcDbEntity
8
0
100
AcDbLine
10
0
20
0
30
0
11
0
21
335.99999999999994
31
0
0
LINE
5
104
100
AcDbEntity
8
0
100
AcDbLine
10
0
20
0
30
0
11
34.999999941268889
21
34.999999941268889
31
0
0
LINE
5
105
100
AcDbEntity
8
0
100
AcDbLine
10
34.999999941268889
20
300.99999994126892
30
0
11
0
21
335.99999999999994
31
0
0
LINE
5
106
100
AcDbEntity
8
0
100
AcDbLine
10
35
20
67.874999997837463
30
0
11
18.499999999999996
21
67.874999997837463
31
-2.1431318985078682e-15
0
LINE
5
107
100
AcDbEntity
8
0
100
AcDbLine
10
18.499999999999996
20
67.874999997837463
30
-2.1431318985078682e-15
11
18.499999999999996
21
70.875000566244125
31
-2.1431318985078682e-15
0
LINE
5
108
100
AcDbEntity
8
0
100
AcDbLine
10
18.499999999999996
20
70.875000566244125
30
-2.1431318985078682e-15
11
35
21
70.875000566244125
31
0
0
LWPOLYLINE
5
109
100
AcDbEntity
8
0
100
AcDbPolyline
90
4
70
1
43
0.0
10
18.499999999999996
20
103.75000056624414
10
35
20
103.75000056624414
10
35
20
100.74999999783743
10
18.499999999999996
20
100.74999999783743
0
LINE
5
110
100
AcDbEntity
8
0
100
AcDbLine
10
35
20
133.62499999783745
30
0
11
18.499999999999996
21
133.62499999783745
31
-2.1431318985078682e-15
0
LINE
5
111
100
AcDbEntity
8
0
100
AcDbLine
10
18.499999999999996
20
133.62499999783745
30
-2.1431318985078682e-15
11
18.499999999999996
21
136.62500056624413
31
-2.1431318985078682e-15
0
LINE
5
112
100
AcDbEntity
8
0
100
AcDbLine
10
18.499999999999996
20
136.62500056624413
30
-2.1431318985078682e-15
11
35
21
136.62500056624413
31
0
0
LINE
5
113
100
AcDbEntity
8
0
100
AcDbLine
10
35
20
166.49999999783742
30
0
11
18.499999999999996
21
166.49999999783742
31
-2.1431318985078682e-15
0
LINE
5
114
100
AcDbEntity
8
0
100
AcDbLine
10
18.499999999999996
20
166.49999999783742
30
-2.1431318985078682e-15
11
18.499999999999996
21
169.50000056624415
31
-2.1431318985078682e-15
0
LINE
5
115
100
AcDbEntity
8
0
100
AcDbLine
10
18.499999999999996
20
169.50000056624415
30
-2.1431318985078682e-15
11
35
21
169.50000056624415
31
0
0
LINE
5
116
100
AcDbEntity
8
0
100
AcDbLine
10
35
20
199.37499999783745
30
0
11
18.499999999999996
21
199.37499999783745
31
-2.1431318985078682e-15
0
LINE
5
117
100
AcDbEntity
8
0
100
AcDbLine
10
18.499999999999996
20
199.37499999783745
30
-2.1431318985078682e-15
11
18.499999999999996
21
202.37500056624413
31
-2.1431318985078682e-15
0
LINE
5
118
100
AcDbEntity
8
0
100
AcDbLine
10
18.499999999999996
20
202.37500056624413
30
-2.1431318985078682e-15
11
35
21
202.37500056624413
31
0
0
LWPOLYLINE
5
119
100
AcDbEntity
8
0
100
AcDbPolyline
90
4
70
1
43
0.0
10
18.499999999999996
20
235.25000056624413
10
35
20
235.25000056624413
10
35
20
232.24999999783748
10
18.499999999999996
20
232.24999999783748
0
LWPOLYLINE
5
120
100
AcDbEntity
8
0
100
AcDbPolyline
90
4
70
1
43
0.0
10
18.499999999999996
20
268.12500056624413
10
35
20
268.12500056624413
10
35
20
265.12499999783751
10
18.499999999999996
20
265.12499999783751
0
LWPOLYLINE
5
121
100
AcDbEntity
8
0
100
AcDbPolyline
90
4
70
1
43
0.0
10
18.499999999999996
20
301.00000056624418
10
35
20
301.00000056624418
10
35
20
297.99999999783751
10
18.499999999999996
20
297.99999999783751
0
LINE
5
122
100
AcDbEntity
8
0
100
AcDbLine
10
35
20
297.99999999783751
30
0
11
35
21
268.12500056624413
31
0
0
LINE
5
123
100
AcDbEntity
8
0
100
AcDbLine
10
35
20
265.12499999783751
30
0
11
35
21
235.25000056624413
31
0
0
LINE
5
124
100
AcDbEntity
8
0
100
AcDbLine
10
35
20
232.24999999783748
30
0
11
35
21
202.37500056624413
31
0
0
LINE
5
125
100
AcDbEntity
8
0
100
AcDbLine
10
35
20
199.37499999783745
30
0
11
35
21
169.50000056624415
31
0
0
LINE
5
126
100
AcDbEntity
8
0
100
AcDbLine
10
35
20
166.49999999783742
30
0
11
35
21
136.62500056624413
31
0
0
LINE
5
127
100
AcDbEntity
8
0
100
AcDbLine
10
35
20
133.62499999783745
30
0
11
35
21
103.75000056624414
31
0
0
LINE
5
128
100
AcDbEntity
8
0
100
AcDbLine
10
35
20
100.74999999783743
30
0
11
35
21
70.875000566244125
31
0
0
LINE
5
129
100
AcDbEntity
8
0
100
AcDbLine
10
35
20
67.874999997837463
30
0
11
35
21
38.000000566244132
31
0
0
LINE
5
130
100
AcDbEntity
8
0
100
AcDbLine
10
34.999999999999993
20
0
30
0
11
69.999999941268882
21
34.999999941268889
31
0
0
LINE
5
131
100
AcDbEntity
8
0
100
AcDbLine
10
70
20
166.49999999783742
30
0
11
53.5
21
166.49999999783742
31
-2.1431318985078682e-15
0
LINE
5
132
100
AcDbEntity
8
0
100
AcDbLine
10
53.5
20
100.74999999783743
30
-2.1431318985078682e-15
11
53.5
21
103.75000056624414
31
-2.1431318985078682e-15
0
LINE
5
133
100
AcDbEntity
8
0
100
AcDbLine
10
53.5
20
133.62499999783745
30
-2.1431318985078682e-15
11
53.5
21
136.62500056624413
31
-2.1431318985078682e-15
0
LINE
5
134
100
AcDbEntity
8
0
100
AcDbLine
10
53.5
20
70.875000566244125
30
-2.1431318985078682e-15
11
70
21
70.875000566244125
31
0
0
LINE
5
135
100
AcDbEntity
8
0
100
AcDbLine
10
53.5
20
202.37500056624413
30
-2.1431318985078682e-15
11
70
21
202.37500056624413
31
0
0
LINE
5
136
100
AcDbEntity
8
0
100
AcDbLine
10
53.5
20
235.25000056624413
30
-2.1431318985078682e-15
11
70
21
235.25000056624413
31
0
0
LINE
5
137
100
AcDbEntity
8
0
100
AcDbLine
10
70
20
34.999999997837449
30
0
11
53.5
21
34.999999997837449
31
-2.1431318985078682e-15
0
LINE
5
138
100
AcDbEntity
8
0
100
AcDbLine
10
53.5
20
265.12499999783751
30
-2.1431318985078682e-15
11
53.5
21
268.12500056624413
31
-2.1431318985078682e-15
0
LINE
5
139
100
AcDbEntity
8
0
100
AcDbLine
10
70
20
297.99999999783751
30
0
11
53.5
21
297.99999999783751
31
-2.1431318985078682e-15
0
LINE
5
140
100
AcDbEntity
8
0
100
AcDbLine
10
70
20
265.12499999783751
30
0
11
53.5
21
265.12499999783751
31
-2.1431318985078682e-15
0
LINE
5
141
100
AcDbEntity
8
0
100
AcDbLine
10
70
20
133.62499999783745
30
0
11
53.5
21
133.62499999783745
31
-2.1431318985078682e-15
0
LINE
5
142
100
AcDbEntity
8
0
100
AcDbLine
10
53.5
20
268.12500056624413
30
-2.1431318985078682e-15
11
70
21
268.12500056624413
31
0
0
LINE
5
143
100
AcDbEntity
8
0
100
AcDbLine
10
69.999999941268882
20
300.99999994126892
30
0
11
34.999999999999993
21
335.99999999999994
31
0
0
LINE
5
144
100
AcDbEntity
8
0
100
AcDbLine
10
53.5
20
301.00000056624418
30
-2.1431318985078682e-15
11
70
21
301.00000056624418
31
0
0
LINE
5
145
100
AcDbEntity
8
0
100
AcDbLine
10
53.5
20
297.99999999783751
30
-2.1431318985078682e-15
11
53.5
21
301.00000056624418
31
-2.1431318985078682e-15
0
LINE
5
146
100
AcDbEntity
8
0
100
AcDbLine
10
70
20
232.24999999783748
30
0
11
53.5
21
232.24999999783748
31
-2.1431318985078682e-15
0
LINE
5
147
100
AcDbEntity
8
0
100
AcDbLine
10
53.5
20
166.49999999783742
30
-2.1431318985078682e-15
11
53.5
21
169.50000056624415
31
-2.1431318985078682e-15
0
LINE
5
148
100
AcDbEntity
8
0
100
AcDbLine
10
70
20
67.874999997837463
30
0
11
53.5
21
67.874999997837463
31
-2.1431318985078682e-15
0
LINE
5
149
100
AcDbEntity
8
0
100
AcDbLine
10
53.5
20
67.874999997837463
30
-2.1431318985078682e-15
11
53.5
21
70.875000566244125
31
-2.1431318985078682e-15
0
LINE
5
150
100
AcDbEntity
8
0
100
AcDbLine
10
70
20
100.74999999783743
30
0
11
53.5
21
100.74999999783743
31
-2.1431318985078682e-15
0
LINE
5
151
100
AcDbEntity
8
0
100
AcDbLine
10
53.5
20
136.62500056624413
30
-2.1431318985078682e-15
11
70
21
136.62500056624413
31
0
0
LINE
5
152
100
AcDbEntity
8
0
100
AcDbLine
10
53.5
20
199.37499999783745
30
-2.1431318985078682e-15
11
53.5
21
202.37500056624413
31
-2.1431318985078682e-15
0
LINE
5
153
100
AcDbEntity
8
0
100
AcDbLine
10
70
20
199.37499999783745
30
0
11
53.5
21
199.37499999783745
31
-2.1431318985078682e-15
0
LINE
5
154
100
AcDbEntity
8
0
100
AcDbLine
10
53.5
20
38.000000566244132
30
-2.1431318985078682e-15
11
70
21
38.000000566244132
31
0
0
LINE
5
155
100
AcDbEntity
8
0
100
AcDbLine
10
53.5
20
232.24999999783748
30
-2.1431318985078682e-15
11
53.5
21
235.25000056624413
31
-2.1431318985078682e-15
0
LINE
5
156
100
AcDbEntity
8
0
100
AcDbLine
10
53.5
20
169.50000056624415
30
-2.1431318985078682e-15
11
70
21
169.50000056624415
31
0
0
LINE
5
157
100
AcDbEntity
8
0
100
AcDbLine
10
53.5
20
34.999999997837449
30
-2.1431318985078682e-15
11
53.5
21
38.000000566244132
31
-2.1431318985078682e-15
0
LINE
5
158
100
AcDbEntity
8
0
100
AcDbLine
10
53.5
20
103.75000056624414
30
-2.1431318985078682e-15
11
70
21
103.75000056624414
31
0
0
LINE
5
159
100
AcDbEntity
8
0
100
AcDbLine
10
34.999999941268889
20
300.99999994126892
30
0
11
34.999999999999993
21
335.99999999999994
31
0
0
LINE
5
160
100
AcDbEntity
8
0
100
AcDbLine
10
35
20
34.999999997837449
30
0
11
34.999999999999993
21
0
31
0
0
LINE
5
161
100
AcDbEntity
8
0
100
AcDbLine
10
35
20
34.999999997837449
30
0
11
35
21
38.000000566244132
31
0
0
LINE
5
162
100
AcDbEntity
8
0
100
AcDbLine
10
35
20
67.874999997837463
30
0
11
35
21
70.875000566244125
31
0
0
LINE
5
163
100
AcDbEntity
8
0
100
AcDbLine
10
35
20
133.62499999783745
30
0
11
35
21
136.62500056624413
31
0
0
LINE
5
164
100
AcDbEntity
8
0
100
AcDbLine
10
35
20
166.49999999783742
30
0
11
35
21
169.50000056624415
31
0
0
LINE
5
165
100
AcDbEntity
8
0
100
AcDbLine
10
35
20
199.37499999783745
30
0
11
35
21
202.37500056624413
31
0
0
LINE
5
166
100
AcDbEntity
8
0
100
AcDbLine
10
105
20
34.999999997837449
30
0
11
105
21
0
31
0
0
LWPOLYLINE
5
167
100
AcDbEntity
8
0
100
AcDbPolyline
90
4
70
1
43
0.0
10
88.5
20
235.25000056624413
10
105
20
235.25000056624413
10
105
20
232.24999999783748
10
88.5
20
232.24999999783748
0
LINE
5
168
100
AcDbEntity
8
0
100
AcDbLine
10
105
20
0
30
0
11
139.99999994126887
21
34.999999941268889
31
0
0
LWPOLYLINE
5
169
100
AcDbEntity
8
0
100
AcDbPolyline
90
4
70
1
43
0.0
10
105
20
297.99999999783751
10
105
20
301.00000056624418
10
88.5
20
301.00000056624418
10
88.5
20
297.99999999783751
0
LWPOLYLINE
5
170
100
AcDbEntity
8
0
100
AcDbPolyline
90
4
70
1
43
0.0
10
88.5
20
133.62499999783745
10
88.5
20
136.62500056624413
10
105
20
136.62500056624413
10
105
20
133.62499999783745
0
LWPOLYLINE
5
171
100
AcDbEntity
8
0
100
AcDbPolyline
90
4
70
1
43
0.0
10
105
20
166.49999999783742
10
105
20
169.50000056624415
10
88.5
20
169.50000056624415
10
88.5
20
166.49999999783742
0
LINE
5
172
100
AcDbEntity
8
0
100
AcDbLine
10
123.5
20
34.999999997837449
30
-2.1431318985078682e-15
11
123.5
21
38.000000566244132
31
-2.1431318985078682e-15
0
LWPOLYLINE
5
173
100
AcDbEntity
8
0
100
AcDbPolyline
90
4
70
1
43
0.0
10
88.5
20
103.75000056624414
10
105
20
103.75000056624414
10
105
20
100.74999999783743
10
88.5
20
100.74999999783743
0
LWPOLYLINE
5
174
100
AcDbEntity
8
0
100
AcDbPolyline
90
4
70
1
43
0.0
10
105
20
265.12499999783751
10
88.5
20
265.12499999783751
10
88.5
20
268.12500056624413
10
105
20
268.12500056624413
0
LINE
5
175
100
AcDbEntity
8
0
100
AcDbLine
10
123.5
20
232.24999999783748
30
-2.1431318985078682e-15
11
123.5
21
235.25000056624413
31
-2.1431318985078682e-15
0
LINE
5
176
100
AcDbEntity
8
0
100
AcDbLine
10
105
20
166.49999999783742
30
0
11
105
21
136.62500056624413
31
0
0
LINE
5
177
100
AcDbEntity
8
0
100
AcDbLine
10
70
20
0
30
0
11
70
21
335.99999999999994
31
0
0
LINE
5
178
100
AcDbEntity
8
0
100
AcDbLine
10
123.5
20
133.62499999783745
30
-2.1431318985078682e-15
11
123.5
21
136.62500056624413
31
-2.1431318985078682e-15
0
LWPOLYLINE
5
179
100
AcDbEntity
8
0
100
AcDbPolyline
90
4
70
1
43
0.0
10
88.5
20
202.37500056624413
10
105
20
202.37500056624413
10
105
20
199.37499999783745
10
88.5
20
199.37499999783745
0
LWPOLYLINE
5
180
100
AcDbEntity
8
0
100
AcDbPolyline
90
4
70
1
43
0.0
10
105
20
67.874999997837463
10
88.5
20
67.874999997837463
10
88.5
20
70.875000566244125
10
105
20
70.875000566244125
0
LINE
5
181
100
AcDbEntity
8
0
100
AcDbLine
10
140
20
199.37499999783745
30
0
11
123.5
21
199.37499999783745
31
-2.1431318985078682e-15
0
LINE
5
182
100
AcDbEntity
8
0
100
AcDbLine
10
140
20
67.874999997837463
30
0
11
123.5
21
67.874999997837463
31
-2.1431318985078682e-15
0
LINE
5
183
100
AcDbEntity
8
0
100
AcDbLine
10
123.5
20
166.49999999783742
30
-2.1431318985078682e-15
11
123.5
21
169.50000056624415
31
-2.1431318985078682e-15
0
LINE
5
184
100
AcDbEntity
8
0
100
AcDbLine
10
123.5
20
38.000000566244132
30
-2.1431318985078682e-15
11
140
21
38.000000566244132
31
0
0
LWPOLYLINE
5
185
100
AcDbEntity
8
0
100
AcDbPolyline
90
4
70
1
43
0.0
10
88.5
20
34.999999997837449
10
88.5
20
38.000000566244132
10
105
20
38.000000566244132
10
105
20
34.999999997837449
0
LINE
5
186
100
AcDbEntity
8
0
100
AcDbLine
10
123.5
20
199.37499999783745
30
-2.1431318985078682e-15
11
123.5
21
202.37500056624413
31
-2.1431318985078682e-15
0
LINE
5
187
100
AcDbEntity
8
0
100
AcDbLine
10
70
20
0
30
0
11
104.99999994126888
21
34.999999941268889
31
0
0
LINE
5
188
100
AcDbEntity
8
0
100
AcDbLine
10
123.5
20
297.99999999783751
30
-2.1431318985078682e-15
11
123.5
21
301.00000056624418
31
-2.1431318985078682e-15
0
LINE
5
189
100
AcDbEntity
8
0
100
AcDbLine
10
123.5
20
136.62500056624413
30
-2.1431318985078682e-15
11
140
21
136.62500056624413
31
0
0
LINE
5
190
100
AcDbEntity
8
0
100
AcDbLine
10
140
20
232.24999999783748
30
0
11
123.5
21
232.24999999783748
31
-2.1431318985078682e-15
0
LINE
5
191
100
AcDbEntity
8
0
100
AcDbLine
10
139.99999994126887
20
300.99999994126892
30
0
11
105
21
335.99999999999994
31
0
0
LINE
5
192
100
AcDbEntity
8
0
100
AcDbLine
10
123.5
20
202.37500056624413
30
-2.1431318985078682e-15
11
140
21
202.37500056624413
31
0
0
LINE
5
193
100
AcDbEntity
8
0
100
AcDbLine
10
105
20
297.99999999783751
30
0
11
105
21
268.12500056624413
31
0
0
LINE
5
194
100
AcDbEntity
8
0
100
AcDbLine
10
105
20
100.74999999783743
30
0
11
105
21
70.875000566244125
31
0
0
LINE
5
195
100
AcDbEntity
8
0
100
AcDbLine
10
105
20
199.37499999783745
30
0
11
105
21
169.50000056624415
31
0
0
LINE
5
196
100
AcDbEntity
8
0
100
AcDbLine
10
105
20
265.12499999783751
30
0
11
105
21
235.25000056624413
31
0
0
LINE
5
197
100
AcDbEntity
8
0
100
AcDbLine
10
123.5
20
100.74999999783743
30
-2.1431318985078682e-15
11
123.5
21
103.75000056624414
31
-2.1431318985078682e-15
0
LINE
5
198
100
AcDbEntity
8
0
100
AcDbLine
10
123.5
20
70.875000566244125
30
-2.1431318985078682e-15
11
140
21
70.875000566244125
31
0
0
LINE
5
199
100
AcDbEntity
8
0
100
AcDbLine
10
140
20
133.62499999783745
30
0
11
123.5
21
133.62499999783745
31
-2.1431318985078682e-15
0
LINE
5
200
100
AcDbEntity
8
0
100
AcDbLine
10
123.5
20
67.874999997837463
30
-2.1431318985078682e-15
11
123.5
21
70.875000566244125
31
-2.1431318985078682e-15
0
LINE
5
201
100
AcDbEntity
8
0
100
AcDbLine
10
123.5
20
103.75000056624414
30
-2.1431318985078682e-15
11
140
21
103.75000056624414
31
0
0
LINE
5
202
100
AcDbEntity
8
0
100
AcDbLine
10
140
20
265.12499999783751
30
0
11
123.5
21
265.12499999783751
31
-2.1431318985078682e-15
0
LINE
5
203
100
AcDbEntity
8
0
100
AcDbLine
10
105
20
133.62499999783745
30
0
11
105
21
103.75000056624414
31
0
0
LINE
5
204
100
AcDbEntity
8
0
100
AcDbLine
10
140
20
34.999999997837449
30
0
11
123.5
21
34.999999997837449
31
-2.1431318985078682e-15
0
LINE
5
205
100
AcDbEntity
8
0
100
AcDbLine
10
123.5
20
268.12500056624413
30
-2.1431318985078682e-15
11
140
21
268.12500056624413
31
0
0
LINE
5
206
100
AcDbEntity
8
0
100
AcDbLine
10
123.5
20
301.00000056624418
30
-2.1431318985078682e-15
11
140
21
301.00000056624418
31
0
0
LINE
5
207
100
AcDbEntity
8
0
100
AcDbLine
10
104.99999994126888
20
300.99999994126892
30
0
11
70
21
335.99999999999994
31
0
0
LINE
5
208
100
AcDbEntity
8
0
100
AcDbLine
10
105
20
67.874999997837463
30
0
11
105
21
38.000000566244132
31
0
0
LINE
5
209
100
AcDbEntity
8
0
100
AcDbLine
10
105
20
232.24999999783748
30
0
11
105
21
202.37500056624413
31
0
0
LINE
5
210
100
AcDbEntity
8
0
100
AcDbLine
10
140
20
100.74999999783743
30
0
11
123.5
21
100.74999999783743
31
-2.1431318985078682e-15
0
LINE
5
211
100
AcDbEntity
8
0
100
AcDbLine
10
123.5
20
265.12499999783751
30
-2.1431318985078682e-15
11
123.5
21
268.12500056624413
31
-2.1431318985078682e-15
0
LINE
5
212
100
AcDbEntity
8
0
100
AcDbLine
10
140
20
297.99999999783751
30
0
11
123.5
21
297.99999999783751
31
-2.1431318985078682e-15
0
LINE
5
213
100
AcDbEntity
8
0
100
AcDbLine
10
104.99999994126888
20
300.99999994126892
30
0
11
105
21
335.99999999999994
31
0
0
LINE
5
214
100
AcDbEntity
8
0
100
AcDbLine
10
123.5
20
235.25000056624413
30
-2.1431318985078682e-15
11
140
21
235.25000056624413
31
0
0
LINE
5
215
100
AcDbEntity
8
0
100
AcDbLine
10
123.5
20
169.50000056624415
30
-2.1431318985078682e-15
11
140
21
169.50000056624415
31
0
0
LINE
5
216
100
AcDbEntity
8
0
100
AcDbLine
10
140
20
166.49999999783742
30
0
11
123.5
21
166.49999999783742
31
-2.1431318985078682e-15
0
LINE
5
217
100
AcDbEntity
8
0
100
AcDbLine
10
193.5
20
169.50000056624415
30
-2.1431318985078682e-15
11
210
21
169.50000056624415
31
0
0
LINE
5
218
100
AcDbEntity
8
0
100
AcDbLine
10
210
20
199.37499999783745
30
0
11
193.5
21
199.37499999783745
31
-2.1431318985078682e-15
0
LINE
5
219
100
AcDbEntity
8
0
100
AcDbLine
10
193.5
20
202.37500056624413
30
-2.1431318985078682e-15
11
210
21
202.37500056624413
31
0
0
LINE
5
220
100
AcDbEntity
8
0
100
AcDbLine
10
175
20
199.37499999783745
30
0
11
175
21
169.50000056624415
31
0
0
LWPOLYLINE
5
221
100
AcDbEntity
8
0
100
AcDbPolyline
90
4
70
1
43
0.0
10
175
20
232.24999999783748
10
175
20
235.25000056624413
10
158.5
20
235.25000056624413
10
158.5
20
232.24999999783748
0
LINE
5
222
100
AcDbEntity
8
0
100
AcDbLine
10
193.5
20
199.37499999783745
30
-2.1431318985078682e-15
11
193.5
21
202.37500056624413
31
-2.1431318985078682e-15
0
LWPOLYLINE
5
223
100
AcDbEntity
8
0
100
AcDbPolyline
90
4
70
1
43
0.0
10
175
20
166.49999999783742
10
175
20
169.50000056624415
10
158.5
20
169.50000056624415
10
158.5
20
166.49999999783742
0
LINE
5
224
100
AcDbEntity
8
0
100
AcDbLine
10
140
20
0
30
0
11
140
21
335.99999999999994
31
0
0
LWPOLYLINE
5
225
100
AcDbEntity
8
0
100
AcDbPolyline
90
4
70
1
43
0.0
10
263.5
20
166.49999999783742
10
263.5
20
169.50000056624415
10
280
20
169.50000056624415
10
280
20
166.49999999783742
0
LWPOLYLINE
5
226
100
AcDbEntity
8
0
100
AcDbPolyline
90
4
70
1
43
0.0
10
228.5
20
103.75000056624414
10
245
20
103.75000056624414
10
245
20
100.74999999783743
10
228.5
20
100.74999999783743
0
LWPOLYLINE
5
227
100
AcDbEntity
8
0
100
AcDbPolyline
90
4
70
1
43
0.0
10
228.5
20
232.24999999783748
10
228.5
20
235.25000056624413
10
245
20
235.25000056624413
10
245
20
232.24999999783748
0
LINE
5
228
100
AcDbEntity
8
0
100
AcDbLine
10
174.99999994126887
20
300.99999994126892
30
0
11
175
21
335.99999999999994
31
0
0
LWPOLYLINE
5
229
100
AcDbEntity
8
0
100
AcDbPolyline
90
4
70
1
43
0.0
10
158.5
20
297.99999999783751
10
158.5
20
301.00000056624418
10
175
20
301.00000056624418
10
175
20
297.99999999783751
0
LWPOLYLINE
5
230
100
AcDbEntity
8
0
100
AcDbPolyline
90
4
70
1
43
0.0
10
228.5
20
202.37500056624413
10
245
20
202.37500056624413
10
245
20
199.37499999783745
10
228.5
20
199.37499999783745
0
LWPOLYLINE
5
231
100
AcDbEntity
8
0
100
AcDbPolyline
90
4
70
1
43
0.0
10
263.5
20
133.62499999783745
10
263.5
20
136.62500056624413
10
280
20
136.62500056624413
10
280
20
133.62499999783745
0
LINE
5
232
100
AcDbEntity
8
0
100
AcDbLine
10
193.5
20
136.62500056624413
30
-2.1431318985078682e-15
11
210
21
136.62500056624413
31
0
0
LINE
5
233
100
AcDbEntity
8
0
100
AcDbLine
10
245
20
199.37499999783745
30
0
11
245
21
169.50000056624415
31
0
0
LWPOLYLINE
5
234
100
AcDbEntity
8
0
100
AcDbPolyline
90
4
70
1
43
0.0
10
175
20
265.12499999783751
10
175
20
268.12500056624413
10
158.5
20
268.12500056624413
10
158.5
20
265.12499999783751
0
LINE
5
235
100
AcDbEntity
8
0
100
AcDbLine
10
245
20
297.99999999783751
30
0
11
245
21
268.12500056624413
31
0
0
LINE
5
236
100
AcDbEntity
8
0
100
AcDbLine
10
210
20
34.999999997837449
30
0
11
193.5
21
34.999999997837449
31
-2.1431318985078682e-15
0
LINE
5
237
100
AcDbEntity
8
0
100
AcDbLine
10
175
20
34.999999997837449
30
0
11
175
21
0
31
0
0
LINE
5
238
100
AcDbEntity
8
0
100
AcDbLine
10
193.5
20
100.74999999783743
30
-2.1431318985078682e-15
11
193.5
21
103.75000056624414
31
-2.1431318985078682e-15
0
LINE
5
239
100
AcDbEntity
8
0
100
AcDbLine
10
210
20
67.874999997837463
30
0
11
193.5
21
67.874999997837463
31
-2.1431318985078682e-15
0
LWPOLYLINE
5
240
100
AcDbEntity
8
0
100
AcDbPolyline
90
4
70
1
43
0.0
10
228.5
20
169.50000056624415
10
245
20
169.50000056624415
10
245
20
166.49999999783742
10
228.5
20
166.49999999783742
0
LINE
5
241
100
AcDbEntity
8
0
100
AcDbLine
10
280
20
297.99999999783751
30
0
11
263.5
21
297.99999999783751
31
-2.1431318985078682e-15
0
LWPOLYLINE
5
242
100
AcDbEntity
8
0
100
AcDbPolyline
90
4
70
1
43
0.0
10
263.5
20
202.37500056624413
10
280
20
202.37500056624413
10
280
20
199.37499999783745
10
263.5
20
199.37499999783745
0
LINE
5
243
100
AcDbEntity
8
0
100
AcDbLine
10
193.5
20
103.75000056624414
30
-2.1431318985078682e-15
11
210
21
103.75000056624414
31
0
0
LWPOLYLINE
5
244
100
AcDbEntity
8
0
100
AcDbPolyline
90
4
70
1
43
0.0
10
228.5
20
133.62499999783745
10
228.5
20
136.62500056624413
10
245
20
136.62500056624413
10
245
20
133.62499999783745
0
LWPOLYLINE
5
245
100
AcDbEntity
8
0
100
AcDbPolyline
90
4
70
1
43
0.0
10
175
20
100.74999999783743
10
175
20
103.75000056624414
10
158.5
20
103.75000056624414
10
158.5
20
100.74999999783743
0
LWPOLYLINE
5
246
100
AcDbEntity
8
0
100
AcDbPolyline
90
4
70
1
43
0.0
10
245
20
297.99999999783751
10
228.5
20
297.99999999783751
10
228.5
20
301.00000056624418
10
245
20
301.00000056624418
0
LWPOLYLINE
5
247
100
AcDbEntity
8
0
100
AcDbPolyline
90
4
70
1
43
0.0
10
158.5
20
136.62500056624413
10
175
20
136.62500056624413
10
175
20
133.62499999783745
10
158.5
20
133.62499999783745
0
LINE
5
248
100
AcDbEntity
8
0
100
AcDbLine
10
263.5
20
301.00000056624418
30
-2.1431318985078682e-15
11
280
21
301.00000056624418
31
0
0
LWPOLYLINE
5
249
100
AcDbEntity
8
0
100
AcDbPolyline
90
4
70
1
43
0.0
10
228.5
20
70.875000566244125
10
245
20
70.875000566244125
10
245
20
67.874999997837463
10
228.5
20
67.874999997837463
0
LINE
5
250
100
AcDbEntity
8
0
100
AcDbLine
10
245
20
232.24999999783748
30
0
11
245
21
202.37500056624413
31
0
0
LWPOLYLINE
5
251
100
AcDbEntity
8
0
100
AcDbPolyline
90
4
70
1
43
0.0
10
263.5
20
235.25000056624413
10
280
20
235.25000056624413
10
280
20
232.24999999783748
10
263.5
20
232.24999999783748
0
LINE
5
252
100
AcDbEntity
8
0
100
AcDbLine
10
193.5
20
38.000000566244132
30
-2.1431318985078682e-15
11
210
21
38.000000566244132
31
0
0
LWPOLYLINE
5
253
100
AcDbEntity
8
0
100
AcDbPolyline
90
4
70
1
43
0.0
10
245
20
34.999999997837449
10
245
20
38.000000566244132
10
228.5
20
38.000000566244132
10
228.5
20
34.999999997837449
0
LINE
5
254
100
AcDbEntity
8
0
100
AcDbLine
10
280
20
232.24999999783748
30
0
11
280
21
202.37500056624413
31
0
0
LINE
5
255
100
AcDbEntity
8
0
100
AcDbLine
10
279.99999994126887
20
300.99999994126892
30
0
11
245
21
335.99999999999994
31
0
0
LINE
5
256
100
AcDbEntity
8
0
100
AcDbLine
10
280
20
67.874999997837463
30
0
11
263.5
21
67.874999997837463
31
-2.1431318985078682e-15
0
LINE
5
257
100
AcDbEntity
8
0
100
AcDbLine
10
210
20
232.24999999783748
30
0
11
193.5
21
232.24999999783748
31
-2.1431318985078682e-15
0
LINE
5
258
100
AcDbEntity
8
0
100
AcDbLine
10
193.5
20
235.25000056624413
30
-2.1431318985078682e-15
11
210
21
235.25000056624413
31
0
0
LINE
5
259
100
AcDbEntity
8
0
100
AcDbLine
10
210
20
297.99999999783751
30
0
11
193.5
21
297.99999999783751
31
-2.1431318985078682e-15
0
LINE
5
260
100
AcDbEntity
8
0
100
AcDbLine
10
263.5
20
297.99999999783751
30
-2.1431318985078682e-15
11
263.5
21
301.00000056624418
31
-2.1431318985078682e-15
0
LINE
5
261
100
AcDbEntity
8
0
100
AcDbLine
10
175
20
67.874999997837463
30
0
11
175
21
38.000000566244132
31
0
0
LINE
5
262
100
AcDbEntity
8
0
100
AcDbLine
10
280
20
100.74999999783743
30
0
11
263.5
21
100.74999999783743
31
-2.1431318985078682e-15
0
LINE
5
263
100
AcDbEntity
8
0
100
AcDbLine
10
280
20
265.12499999783751
30
0
11
263.5
21
265.12499999783751
31
-2.1431318985078682e-15
0
LINE
5
264
100
AcDbEntity
8
0
100
AcDbLine
10
263.5
20
70.875000566244125
30
-2.1431318985078682e-15
11
280
21
70.875000566244125
31
0
0
LINE
5
265
100
AcDbEntity
8
0
100
AcDbLine
10
280
20
100.74999999783743
30
0
11
280
21
70.875000566244125
31
0
0
LINE
5
266
100
AcDbEntity
8
0
100
AcDbLine
10
175
20
100.74999999783743
30
0
11
175
21
70.875000566244125
31
0
0
LWPOLYLINE
5
267
100
AcDbEntity
8
0
100
AcDbPolyline
90
4
70
1
43
0.0
10
175
20
34.999999997837449
10
175
20
38.000000566244132
10
158.5
20
38.000000566244132
10
158.5
20
34.999999997837449
0
LWPOLYLINE
5
268
100
AcDbEntity
8
0
100
AcDbPolyline
90
4
70
1
43
0.0
10
228.5
20
268.12500056624413
10
245
20
268.12500056624413
10
245
20
265.12499999783751
10
228.5
20
265.12499999783751
0
LINE
5
269
100
AcDbEntity
8
0
100
AcDbLine
10
193.5
20
34.999999997837449
30
-2.1431318985078682e-15
11
193.5
21
38.000000566244132
31
-2.1431318985078682e-15
0
LINE
5
270
100
AcDbEntity
8
0
100
AcDbLine
10
263.5
20
268.12500056624413
30
-2.1431318985078682e-15
11
280
21
268.12500056624413
31
0
0
LWPOLYLINE
5
271
100
AcDbEntity
8
0
100
AcDbPolyline
90
4
70
1
43
0.0
10
175
20
67.874999997837463
10
158.5
20
67.874999997837463
10
158.5
20
70.875000566244125
10
175
20
70.875000566244125
0
LINE
5
272
100
AcDbEntity
8
0
100
AcDbLine
10
263.5
20
265.12499999783751
30
-2.1431318985078682e-15
11
263.5
21
268.12500056624413
31
-2.1431318985078682e-15
0
LINE
5
273
100
AcDbEntity
8
0
100
AcDbLine
10
245
20
100.74999999783743
30
0
11
245
21
70.875000566244125
31
0
0
LINE
5
274
100
AcDbEntity
8
0
100
AcDbLine
10
263.5
20
34.999999997837449
30
-2.1431318985078682e-15
11
263.5
21
38.000000566244132
31
-2.1431318985078682e-15
0
LINE
5
275
100
AcDbEntity
8
0
100
AcDbLine
10
193.5
20
67.874999997837463
30
-2.1431318985078682e-15
11
193.5
21
70.875000566244125
31
-2.1431318985078682e-15
0
LWPOLYLINE
5
276
100
AcDbEntity
8
0
100
AcDbPolyline
90
4
70
1
43
0.0
10
175
20
199.37499999783745
10
158.5
20
199.37499999783745
10
158.5
20
202.37500056624413
10
175
20
202.37500056624413
0
LINE
5
277
100
AcDbEntity
8
0
100
AcDbLine
10
175
20
232.24999999783748
30
0
11
175
21
202.37500056624413
31
0
0
LINE
5
278
100
AcDbEntity
8
0
100
AcDbLine
10
193.5
20
166.49999999783742
30
-2.1431318985078682e-15
11
193.5
21
169.50000056624415
31
-2.1431318985078682e-15
0
LINE
5
279
100
AcDbEntity
8
0
100
AcDbLine
10
193.5
20
232.24999999783748
30
-2.1431318985078682e-15
11
193.5
21
235.25000056624413
31
-2.1431318985078682e-15
0
LINE
5
280
100
AcDbEntity
8
0
100
AcDbLine
10
280
20
34.999999997837449
30
0
11
263.5
21
34.999999997837449
31
-2.1431318985078682e-15
0
LINE
5
281
100
AcDbEntity
8
0
100
AcDbLine
10
280
20
67.874999997837463
30
0
11
280
21
38.000000566244132
31
0
0
LINE
5
282
100
AcDbEntity
8
0
100
AcDbLine
10
263.5
20
103.75000056624414
30
-2.1431318985078682e-15
11
280
21
103.75000056624414
31
0
0
LINE
5
283
100
AcDbEntity
8
0
100
AcDbLine
10
210
20
0
30
0
11
210
21
335.99999999999994
31
0
0
LINE
5
284
100
AcDbEntity
8
0
100
AcDbLine
10
175
20
265.12499999783751
30
0
11
175
21
235.25000056624413
31
0
0
LINE
5
285
100
AcDbEntity
8
0
100
AcDbLine
10
174.99999994126887
20
300.99999994126892
30
0
11
140
21
335.99999999999994
31
0
0
LINE
5
286
100
AcDbEntity
8
0
100
AcDbLine
10
280
20
166.49999999783742
30
0
11
280
21
136.62500056624413
31
0
0
LINE
5
287
100
AcDbEntity
8
0
100
AcDbLine
10
245
20
265.12499999783751
30
0
11
245
21
235.25000056624413
31
0
0
LINE
5
288
100
AcDbEntity
8
0
100
AcDbLine
10
210
20
0
30
0
11
244.99999994126887
21
34.999999941268889
31
0
0
LINE
5
289
100
AcDbEntity
8
0
100
AcDbLine
10
280
20
265.12499999783751
30
0
11
280
21
235.25000056624413
31
0
0
LINE
5
290
100
AcDbEntity
8
0
100
AcDbLine
10
245
20
166.49999999783742
30
0
11
245
21
136.62500056624413
31
0
0
LINE
5
291
100
AcDbEntity
8
0
100
AcDbLine
10
175
20
166.49999999783742
30
0
11
175
21
136.62500056624413
31
0
0
LINE
5
292
100
AcDbEntity
8
0
100
AcDbLine
10
245
20
67.874999997837463
30
0
11
245
21
38.000000566244132
31
0
0
LINE
5
293
100
AcDbEntity
8
0
100
AcDbLine
10
193.5
20
297.99999999783751
30
-2.1431318985078682e-15
11
193.5
21
301.00000056624418
31
-2.1431318985078682e-15
0
LINE
5
294
100
AcDbEntity
8
0
100
AcDbLine
10
193.5
20
268.12500056624413
30
-2.1431318985078682e-15
11
210
21
268.12500056624413
31
0
0
LINE
5
295
100
AcDbEntity
8
0
100
AcDbLine
10
280
20
297.99999999783751
30
0
11
280
21
268.12500056624413
31
0
0
LINE
5
296
100
AcDbEntity
8
0
100
AcDbLine
10
280
20
133.62499999783745
30
0
11
280
21
103.75000056624414
31
0
0
LINE
5
297
100
AcDbEntity
8
0
100
AcDbLine
10
193.5
20
301.00000056624418
30
-2.1431318985078682e-15
11
210
21
301.00000056624418
31
0
0
LINE
5
298
100
AcDbEntity
8
0
100
AcDbLine
10
263.5
20
38.000000566244132
30
-2.1431318985078682e-15
11
280
21
38.000000566244132
31
0
0
LINE
5
299
100
AcDbEntity
8
0
100
AcDbLine
10
193.5
20
133.62499999783745
30
-2.1431318985078682e-15
11
193.5
21
136.62500056624413
31
-2.1431318985078682e-15
0
LINE
5
300
100
AcDbEntity
8
0
100
AcDbLine
10
175
20
297.99999999783751
30
0
11
175
21
268.12500056624413
31
0
0
LINE
5
301
100
AcDbEntity
8
0
100
AcDbLine
10
193.5
20
265.12499999783751
30
-2.1431318985078682e-15
11
193.5
21
268.12500056624413
31
-2.1431318985078682e-15
0
LINE
5
302
100
AcDbEntity
8
0
100
AcDbLine
10
245
20
34.999999997837449
30
0
11
245
21
0
31
0
0
LINE
5
303
100
AcDbEntity
8
0
100
AcDbLine
10
210
20
265.12499999783751
30
0
11
193.5
21
265.12499999783751
31
-2.1431318985078682e-15
0
LINE
5
304
100
AcDbEntity
8
0
100
AcDbLine
10
244.99999994126887
20
300.99999994126892
30
0
11
210
21
335.99999999999994
31
0
0
LINE
5
305
100
AcDbEntity
8
0
100
AcDbLine
10
209.99999994126887
20
300.99999994126892
30
0
11
175
21
335.99999999999994
31
0
0
LINE
5
306
100
AcDbEntity
8
0
100
AcDbLine
10
263.5
20
67.874999997837463
30
-2.1431318985078682e-15
11
263.5
21
70.875000566244125
31
-2.1431318985078682e-15
0
LINE
5
307
100
AcDbEntity
8
0
100
AcDbLine
10
245
20
133.62499999783745
30
0
11
245
21
103.75000056624414
31
0
0
LINE
5
308
100
AcDbEntity
8
0
100
AcDbLine
10
263.5
20
100.74999999783743
30
-2.1431318985078682e-15
11
263.5
21
103.75000056624414
31
-2.1431318985078682e-15
0
LINE
5
309
100
AcDbEntity
8
0
100
AcDbLine
10
210
20
100.74999999783743
30
0
11
193.5
21
100.74999999783743
31
-2.1431318985078682e-15
0
LINE
5
310
100
AcDbEntity
8
0
100
AcDbLine
10
210
20
133.62499999783745
30
0
11
193.5
21
133.62499999783745
31
-2.1431318985078682e-15
0
LINE
5
311
100
AcDbEntity
8
0
100
AcDbLine
10
244.99999994126887
20
300.99999994126892
30
0
11
245
21
335.99999999999994
31
0
0
LINE
5
312
100
AcDbEntity
8
0
100
AcDbLine
10
193.5
20
70.875000566244125
30
-2.1431318985078682e-15
11
210
21
70.875000566244125
31
0
0
LINE
5
313
100
AcDbEntity
8
0
100
AcDbLine
10
140
20
0
30
0
11
174.99999994126887
21
34.999999941268889
31
0
0
LINE
5
314
100
AcDbEntity
8
0
100
AcDbLine
10
280
20
199.37499999783745
30
0
11
280
21
169.50000056624415
31
0
0
LINE
5
315
100
AcDbEntity
8
0
100
AcDbLine
10
175
20
133.62499999783745
30
0
11
175
21
103.75000056624414
31
0
0
LINE
5
316
100
AcDbEntity
8
0
100
AcDbLine
10
245
20
0
30
0
11
279.99999994126887
21
34.999999941268889
31
0
0
LINE
5
317
100
AcDbEntity
8
0
100
AcDbLine
10
175
20
0
30
0
11
209.99999994126887
21
34.999999941268889
31
0
0
LINE
5
318
100
AcDbEntity
8
0
100
AcDbLine
10
210
20
166.49999999783742
30
0
11
193.5
21
166.49999999783742
31
-2.1431318985078682e-15
0
LINE
5
319
100
AcDbEntity
8
0
100
AcDbLine
10
298.5
20
70.875000566244125
30
-2.1431318985078682e-15
11
315
21
70.875000566244125
31
0
0
LINE
5
320
100
AcDbEntity
8
0
100
AcDbLine
10
298.5
20
34.999999997837449
30
-2.1431318985078682e-15
11
298.5
21
38.000000566244132
31
-2.1431318985078682e-15
0
LINE
5
321
100
AcDbEntity
8
0
100
AcDbLine
10
298.5
20
235.25000056624413
30
-2.1431318985078682e-15
11
315
21
235.25000056624413
31
0
0
LINE
5
322
100
AcDbEntity
8
0
100
AcDbLine
10
315
20
34.999999997837449
30
0
11
298.5
21
34.999999997837449
31
-2.1431318985078682e-15
0
LINE
5
323
100
AcDbEntity
8
0
100
AcDbLine
10
280
20
0
30
0
11
314.99999994126887
21
34.999999941268889
31
0
0
LINE
5
324
100
AcDbEntity
8
0
100
AcDbLine
10
298.5
20
297.99999999783751
30
-2.1431318985078682e-15
11
298.5
21
301.00000056624418
31
-2.1431318985078682e-15
0
LINE
5
325
100
AcDbEntity
8
0
100
AcDbLine
10
315
20
166.49999999783742
30
0
11
298.5
21
166.49999999783742
31
-2.1431318985078682e-15
0
LINE
5
326
100
AcDbEntity
8
0
100
AcDbLine
10
298.5
20
100.74999999783743
30
-2.1431318985078682e-15
11
298.5
21
103.75000056624414
31
-2.1431318985078682e-15
0
LINE
5
327
100
AcDbEntity
8
0
100
AcDbLine
10
315
20
100.74999999783743
30
0
11
315
21
70.875000566244125
31
0
0
LINE
5
328
100
AcDbEntity
8
0
100
AcDbLine
10
298.5
20
133.62499999783745
30
-2.1431318985078682e-15
11
298.5
21
136.62500056624413
31
-2.1431318985078682e-15
0
LINE
5
329
100
AcDbEntity
8
0
100
AcDbLine
10
315
20
67.874999997837463
30
0
11
315
21
38.000000566244132
31
0
0
LINE
5
330
100
AcDbEntity
8
0
100
AcDbLine
10
315
20
133.62499999783745
30
0
11
298.5
21
133.62499999783745
31
-2.1431318985078682e-15
0
LINE
5
331
100
AcDbEntity
8
0
100
AcDbLine
10
298.5
20
199.37499999783745
30
-2.1431318985078682e-15
11
298.5
21
202.37500056624413
31
-2.1431318985078682e-15
0
LINE
5
332
100
AcDbEntity
8
0
100
AcDbLine
10
298.5
20
166.49999999783742
30
-2.1431318985078682e-15
11
298.5
21
169.50000056624415
31
-2.1431318985078682e-15
0
LINE
5
333
100
AcDbEntity
8
0
100
AcDbLine
10
315
20
232.24999999783748
30
0
11
315
21
202.37500056624413
31
0
0
LINE
5
334
100
AcDbEntity
8
0
100
AcDbLine
10
298.5
20
232.24999999783748
30
-2.1431318985078682e-15
11
298.5
21
235.25000056624413
31
-2.1431318985078682e-15
0
LINE
5
335
100
AcDbEntity
8
0
100
AcDbLine
10
315
20
166.49999999783742
30
0
11
315
21
136.62500056624413
31
0
0
LINE
5
336
100
AcDbEntity
8
0
100
AcDbLine
10
298.5
20
169.50000056624415
30
-2.1431318985078682e-15
11
315
21
169.50000056624415
31
0
0
LINE
5
337
100
AcDbEntity
8
0
100
AcDbLine
10
298.5
20
67.874999997837463
30
-2.1431318985078682e-15
11
298.5
21
70.875000566244125
31
-2.1431318985078682e-15
0
LINE
5
338
100
AcDbEntity
8
0
100
AcDbLine
10
298.5
20
202.37500056624413
30
-2.1431318985078682e-15
11
315
21
202.37500056624413
31
0
0
LINE
5
339
100
AcDbEntity
8
0
100
AcDbLine
10
298.5
20
301.00000056624418
30
-2.1431318985078682e-15
11
315
21
301.00000056624418
31
0
0
LINE
5
340
100
AcDbEntity
8
0
100
AcDbLine
10
315
20
297.99999999783751
30
0
11
315
21
268.12500056624413
31
0
0
LINE
5
341
100
AcDbEntity
8
0
100
AcDbLine
10
315
20
232.24999999783748
30
0
11
298.5
21
232.24999999783748
31
-2.1431318985078682e-15
0
LINE
5
342
100
AcDbEntity
8
0
100
AcDbLine
10
315
20
199.37499999783745
30
0
11
315
21
169.50000056624415
31
0
0
LINE
5
343
100
AcDbEntity
8
0
100
AcDbLine
10
298.5
20
265.12499999783751
30
-2.1431318985078682e-15
11
298.5
21
268.12500056624413
31
-2.1431318985078682e-15
0
LINE
5
344
100
AcDbEntity
8
0
100
AcDbLine
10
315
20
297.99999999783751
30
0
11
298.5
21
297.99999999783751
31
-2.1431318985078682e-15
0
LINE
5
345
100
AcDbEntity
8
0
100
AcDbLine
10
298.5
20
268.12500056624413
30
-2.1431318985078682e-15
11
315
21
268.12500056624413
31
0
0
LINE
5
346
100
AcDbEntity
8
0
100
AcDbLine
10
315
20
133.62499999783745
30
0
11
315
21
103.75000056624414
31
0
0
LINE
5
347
100
AcDbEntity
8
0
100
AcDbLine
10
315
20
199.37499999783745
30
0
11
298.5
21
199.37499999783745
31
-2.1431318985078682e-15
0
LINE
5
348
100
AcDbEntity
8
0
100
AcDbLine
10
315
20
265.12499999783751
30
0
11
298.5
21
265.12499999783751
31
-2.1431318985078682e-15
0
LINE
5
349
100
AcDbEntity
8
0
100
AcDbLine
10
314.99999994126887
20
300.99999994126892
30
0
11
280
21
335.99999999999994
31
0
0
LINE
5
350
100
AcDbEntity
8
0
100
AcDbLine
10
315
20
265.12499999783751
30
0
11
315
21
235.25000056624413
31
0
0
LINE
5
351
100
AcDbEntity
8
0
100
AcDbLine
10
298.5
20
103.75000056624414
30
-2.1431318985078682e-15
11
315
21
103.75000056624414
31
0
0
LINE
5
352
100
AcDbEntity
8
0
100
AcDbLine
10
315
20
100.74999999783743
30
0
11
298.5
21
100.74999999783743
31
-2.1431318985078682e-15
0
LINE
5
353
100
AcDbEntity
8
0
100
AcDbLine
10
298.5
20
38.000000566244132
30
-2.1431318985078682e-15
11
315
21
38.000000566244132
31
0
0
LINE
5
354
100
AcDbEntity
8
0
100
AcDbLine
10
298.5
20
136.62500056624413
30
-2.1431318985078682e-15
11
315
21
136.62500056624413
31
0
0
LINE
5
355
100
AcDbEntity
8
0
100
AcDbLine
10
315
20
67.874999997837463
30
0
11
298.5
21
67.874999997837463
31
-2.1431318985078682e-15
0
LINE
5
356
100
AcDbEntity
8
0
100
AcDbLine
10
279.99999994126887
20
300.99999994126892
30
0
11
280
21
335.99999999999994
31
0
0
LINE
5
357
100
AcDbEntity
8
0
100
AcDbLine
10
280
20
0
30
0
11
279.99999994126887
21
34.999999941268889
31
0
0
LINE
5
358
100
AcDbEntity
8
0
100
AcDbLine
10
279.99999994126887
20
34.999999941268889
30
0
11
280
21
38.000000566244132
31
0
0
LINE
5
359
100
AcDbEntity
8
0
100
AcDbLine
10
280
20
67.874999997837463
30
0
11
280
21
70.875000566244125
31
0
0
LINE
5
360
100
AcDbEntity
8
0
100
AcDbLine
10
280
20
100.74999999783743
30
0
11
280
21
103.75000056624414
31
0
0
LINE
5
361
100
AcDbEntity
8
0
100
AcDbLine
10
280
20
265.12499999783751
30
0
11
280
21
268.12500056624413
31
0
0
LINE
5
362
100
AcDbEntity
8
0
100
AcDbLine
10
280
20
297.99999999783751
30
0
11
279.99999994126887
21
300.99999994126892
31
0
0
ENDSEC
0
SECTION
2
OBJECTS
0
DICTIONARY
5
C
100
AcDbDictionary
3
ACAD_GROUP
350
D
3
ACAD_MLINESTYLE
350
17
0
DICTIONARY
5
D
100
AcDbDictionary
0
DICTIONARY
5
1A
330
C
100
AcDbDictionary
0
DICTIONARY
5
17
100
AcDbDictionary
0
ENDSEC
0
EOF
